<svg width="28" height="28" viewBox="0 0 28 28" fill="none" xmlns="http://www.w3.org/2000/svg">
<path d="M14 19.25C12.9616 19.25 11.9466 18.9421 11.0833 18.3652C10.2199 17.7883 9.54699 16.9684 9.14963 16.0091C8.75227 15.0498 8.64831 13.9942 8.85088 12.9758C9.05345 11.9574 9.55347 11.0219 10.2877 10.2877C11.0219 9.55347 11.9574 9.05345 12.9758 8.85088C13.9942 8.64831 15.0498 8.75227 16.0091 9.14963C16.9684 9.54699 17.7883 10.2199 18.3652 11.0833C18.9421 11.9466 19.25 12.9616 19.25 14C19.2484 15.3919 18.6947 16.7263 17.7105 17.7105C16.7263 18.6947 15.3919 19.2484 14 19.25ZM14 10.5C13.3078 10.5 12.6311 10.7053 12.0555 11.0899C11.4799 11.4744 11.0313 12.0211 10.7664 12.6606C10.5015 13.3002 10.4322 14.0039 10.5673 14.6828C10.7023 15.3618 11.0356 15.9854 11.5251 16.4749C12.0146 16.9644 12.6383 17.2977 13.3172 17.4328C13.9961 17.5678 14.6999 17.4985 15.3394 17.2336C15.9789 16.9687 16.5256 16.5201 16.9101 15.9445C17.2947 15.3689 17.5 14.6922 17.5 14C17.4988 13.0721 17.1297 12.1825 16.4736 11.5264C15.8175 10.8703 14.9279 10.5012 14 10.5Z" fill="white"/>
<path d="M13.9999 22.75C12.7691 22.749 11.5524 22.4888 10.4288 21.9865C9.30523 21.4842 8.3 20.751 7.47852 19.8345L8.78227 18.6672C9.56075 19.5374 10.5445 20.1991 11.6441 20.5919C12.7436 20.9847 13.9239 21.0963 15.0775 20.9165C16.2312 20.7366 17.3215 20.271 18.2493 19.5621C19.177 18.8532 19.9127 17.9235 20.3894 16.8577C20.866 15.7918 21.0685 14.6237 20.9783 13.4596C20.8882 12.2955 20.5083 11.1724 19.8732 10.1926C19.2382 9.21286 18.3681 8.40751 17.3423 7.84989C16.3165 7.29227 15.1675 7.00011 13.9999 7V5.25C16.3205 5.25 18.5461 6.17187 20.1871 7.81282C21.828 9.45376 22.7499 11.6794 22.7499 14C22.7499 16.3206 21.828 18.5462 20.1871 20.1872C18.5461 21.8281 16.3205 22.75 13.9999 22.75Z" fill="white"/>
<path d="M14 26.25C11.5772 26.25 9.20877 25.5316 7.19427 24.1855C5.17977 22.8395 3.60965 20.9263 2.68248 18.6879C1.75531 16.4495 1.51272 13.9864 1.98539 11.6101C2.45805 9.23388 3.62475 7.05114 5.33795 5.33795C7.05114 3.62475 9.23388 2.45805 11.6101 1.98539C13.9864 1.51272 16.4495 1.75531 18.6879 2.68248C20.9263 3.60965 22.8395 5.17977 24.1855 7.19427C25.5316 9.20877 26.25 11.5772 26.25 14C26.2463 17.2478 24.9545 20.3615 22.658 22.658C20.3615 24.9545 17.2478 26.2463 14 26.25ZM14 3.50001C11.9233 3.50001 9.89323 4.11582 8.16652 5.26957C6.4398 6.42333 5.09399 8.06321 4.29927 9.98183C3.50455 11.9005 3.29662 14.0117 3.70176 16.0485C4.1069 18.0853 5.10693 19.9562 6.57538 21.4246C8.04384 22.8931 9.91476 23.8931 11.9516 24.2983C13.9884 24.7034 16.0996 24.4955 18.0182 23.7007C19.9368 22.906 21.5767 21.5602 22.7304 19.8335C23.8842 18.1068 24.5 16.0767 24.5 14C24.4968 11.2162 23.3895 8.54739 21.421 6.57896C19.4526 4.61054 16.7838 3.50325 14 3.50001Z" fill="white"/>
</svg>
