<svg width="25" height="25" viewBox="0 0 25 25" fill="none" xmlns="http://www.w3.org/2000/svg">
<path d="M5.52183 15.9167C5.06744 14.8896 4.83297 13.7789 4.8335 12.6558C4.8335 8.33568 8.2285 4.83334 12.4168 4.83334C16.6052 4.83334 20.0002 8.33684 20.0002 12.657C20.0005 13.7797 19.7661 14.89 19.3118 15.9167" stroke="white" stroke-width="1.5" stroke-linecap="round"/>
<path d="M12.4167 0.75V1.91667M24.0833 12.4167H22.9167M1.91667 12.4167H0.75M20.665 4.166L19.8402 4.99083M4.99317 4.992L4.16833 4.16717M15.3532 20.9403C16.5315 20.5588 17.0052 19.4797 17.1382 18.3947C17.1778 18.0703 16.9107 17.8008 16.584 17.8008H8.3065C8.22673 17.7996 8.14759 17.8152 8.07434 17.8468C8.00108 17.8784 7.93536 17.9252 7.88154 17.9841C7.82772 18.043 7.78702 18.1127 7.76213 18.1885C7.73724 18.2643 7.72873 18.3445 7.73717 18.4238C7.86783 19.5065 8.19683 20.2987 9.44517 20.9403M15.3532 20.9403H9.44517M15.3532 20.9403C15.212 23.2095 14.5563 24.1078 12.4248 24.0822C10.1452 24.1242 9.62017 23.0135 9.44517 20.9403" stroke="white" stroke-width="1.5" stroke-linecap="round" stroke-linejoin="round"/>
</svg>
