<svg width="23" height="28" viewBox="0 0 23 28" fill="none" xmlns="http://www.w3.org/2000/svg">
<path d="M15.625 5.125H20C20.4641 5.125 20.9092 5.30937 21.2374 5.63756C21.5656 5.96575 21.75 6.41087 21.75 6.875V25.25C21.75 25.7141 21.5656 26.1592 21.2374 26.4874C20.9092 26.8156 20.4641 27 20 27H2.5C2.03587 27 1.59075 26.8156 1.26256 26.4874C0.934375 26.1592 0.75 25.7141 0.75 25.25V6.875C0.75 6.41087 0.934375 5.96575 1.26256 5.63756C1.59075 5.30937 2.03587 5.125 2.5 5.125H6.875C6.875 3.96468 7.33594 2.85188 8.15641 2.03141C8.97688 1.21094 10.0897 0.75 11.25 0.75C12.4103 0.75 13.5231 1.21094 14.3436 2.03141C15.1641 2.85188 15.625 3.96468 15.625 5.125Z" stroke="white" stroke-width="1.5" stroke-linecap="round" stroke-linejoin="round"/>
<path d="M11.25 5.125C11.134 5.125 11.0227 5.07891 10.9406 4.99686C10.8586 4.91481 10.8125 4.80353 10.8125 4.6875C10.8125 4.57147 10.8586 4.46019 10.9406 4.37814C11.0227 4.29609 11.134 4.25 11.25 4.25M11.25 5.125C11.366 5.125 11.4773 5.07891 11.5594 4.99686C11.6414 4.91481 11.6875 4.80353 11.6875 4.6875C11.6875 4.57147 11.6414 4.46019 11.5594 4.37814C11.4773 4.29609 11.366 4.25 11.25 4.25" stroke="white" stroke-width="1.5"/>
<path d="M5.125 12.125H11.25M14.75 12.125H17.375M17.375 16.5H11.25M7.75 16.5H5.125M5.125 20.875H11.25M14.75 20.875H17.375" stroke="white" stroke-width="1.5" stroke-linecap="round" stroke-linejoin="round"/>
</svg>
