<svg width="18" height="13" viewBox="0 0 18 13" fill="none" xmlns="http://www.w3.org/2000/svg">
<path d="M18 11C18 11.5304 17.7893 12.0391 17.4142 12.4142C17.0391 12.7893 16.5304 13 16 13H2C1.46957 13 0.960859 12.7893 0.585786 12.4142C0.210714 12.0391 0 11.5304 0 11V2C0 1.46957 0.210714 0.960859 0.585786 0.585786C0.960859 0.210714 1.46957 0 2 0H16C16.5304 0 17.0391 0.210714 17.4142 0.585786C17.7893 0.960859 18 1.46957 18 2V11Z" fill="#141414"/>
<path d="M0 4H18V9H0V4Z" fill="#EEEEEE"/>
<path d="M16 0H2C1.46957 0 0.960859 0.210714 0.585786 0.585786C0.210714 0.960859 0 1.46957 0 2L0 4H18V2C18 1.46957 17.7893 0.960859 17.4142 0.585786C17.0391 0.210714 16.5304 0 16 0Z" fill="#CE1225"/>
<path d="M7.375 8.28095C7.375 8.28095 7.383 8.40595 7.492 8.46845C7.492 8.46845 7.461 8.56245 7.578 8.61695C7.695 8.67145 8.117 8.75745 8.8515 8.75745C9.586 8.75745 10 8.67945 10.1095 8.62445C10.219 8.56995 10.2265 8.44495 10.2265 8.44495C10.2265 8.44495 10.3435 8.38245 10.336 8.30445C10.3285 8.22645 10.172 8.14045 10.172 8.14045C10.172 8.14045 10.133 8.03895 10.0235 7.99995C9.914 7.96095 9.5625 8.17195 8.8905 8.14045C8.2185 8.10895 7.836 8.00745 7.711 8.01545C7.586 8.02345 7.5315 8.14845 7.5315 8.14845C7.5315 8.14845 7.3905 8.21095 7.375 8.28095Z" fill="#BF9300"/>
<path d="M7.461 8.27317C7.4545 8.31967 7.555 8.42167 7.555 8.42167C7.555 8.42167 7.555 8.53867 7.6565 8.57017C7.758 8.60167 8.172 8.67967 8.844 8.67167C9.516 8.66367 9.9925 8.62467 10.047 8.57767C10.1015 8.53067 10.1485 8.42917 10.1485 8.42917C10.1485 8.42917 10.258 8.35117 10.25 8.28867C10.242 8.22617 10.086 8.18717 10.086 8.18717C10.086 8.18717 10.042 8.09317 9.99 8.05417C9.938 8.01517 9.602 8.21017 8.883 8.21017C8.1795 8.21017 7.7735 8.03817 7.7035 8.04617C7.6335 8.05417 7.5865 8.18667 7.5865 8.18667C7.5865 8.18667 7.469 8.21867 7.461 8.27317Z" fill="#EEEEEE"/>
<path d="M10.4295 5.24235C10.4295 5.24235 10.414 4.87535 10.078 4.92185C9.74201 4.96885 9.71851 5.13285 9.35901 5.17185L9.28501 5.17885C9.22511 5.01627 9.19201 4.84504 9.18702 4.67185C9.18702 4.43735 9.25752 4.33585 9.01502 4.21885C8.77302 4.10185 8.72601 4.21085 8.72601 4.21085C8.72601 4.21085 8.53852 4.11685 8.45252 4.18735C8.36652 4.25785 8.41352 4.43735 8.45252 4.38285C8.49152 4.32835 8.64801 4.48435 8.64801 4.48435C8.70101 4.74385 8.55052 5.02485 8.44752 5.18135C8.41202 5.17785 8.38351 5.17635 8.34351 5.17185C7.98401 5.13285 7.96051 4.96885 7.62451 4.92185C7.28851 4.87485 7.27301 5.24235 7.27301 5.24235L7.14001 8.07835L7.41351 7.86735L7.41501 7.83385L7.98401 7.32835L8.07902 7.23335L7.84351 7.92185C7.84351 7.92185 7.48401 7.89835 7.58551 8.18735C7.58551 8.18735 7.64001 8.02335 7.73401 8.05435C7.82801 8.08535 8.10101 8.15585 8.10101 8.15585L8.19501 8.30435L8.31202 8.19485L8.67901 8.17935C8.67901 8.17935 8.79601 8.21035 8.78851 8.31235C8.80987 8.26844 8.81637 8.21878 8.80701 8.17085L8.91751 8.16335C8.90586 8.21366 8.91186 8.26645 8.93451 8.31285C8.92651 8.21135 9.04401 8.17985 9.04401 8.17985L9.41102 8.19535L9.52851 8.30485L9.62252 8.15635C9.62252 8.15635 9.89552 8.08585 9.98902 8.05485C10.0825 8.02385 10.1375 8.18785 10.1375 8.18785C10.239 7.89885 9.87952 7.92235 9.87952 7.92235L9.65501 7.26585L9.71802 7.32885L10.287 7.83435L10.2885 7.86785L10.562 8.07885L10.4295 5.24235ZM8.87602 6.96135C8.31252 6.61335 8.26601 5.73485 8.26601 5.73485C8.26601 5.73485 8.61452 5.71685 8.86752 5.53935C9.09552 5.74185 9.48451 5.71885 9.48451 5.71885C9.48451 5.71885 9.45802 6.60085 8.87602 6.96135ZM10.164 5.13335L9.68751 5.58635L9.60751 5.61835C9.52551 5.62135 9.12651 5.62235 8.87501 5.39885C8.56251 5.61785 8.13302 5.63335 8.13302 5.63335L8.06651 5.60685L7.53901 5.13335L7.40051 5.19035C7.40651 5.13385 7.43751 5.00685 7.60951 5.03185C7.89151 5.07235 8.00802 5.22735 8.30502 5.25835L8.38901 5.26685L8.35951 5.30485C8.40551 5.30485 8.47352 5.29135 8.52352 5.28035L8.58001 5.28585L8.55451 5.37485C8.59451 5.36285 8.65251 5.32835 8.70001 5.29785L8.83001 5.31035L8.85951 5.35135L8.95851 5.30185L9.02501 5.29535C9.08251 5.32885 9.16452 5.35885 9.16452 5.35885L9.18002 5.28085C9.25052 5.32785 9.36752 5.32785 9.36752 5.32785C9.35402 5.31685 9.34051 5.28885 9.32651 5.26485L9.39852 5.25735C9.69552 5.22635 9.81151 5.07135 10.094 5.03085C10.266 5.00635 10.297 5.13285 10.303 5.18935L10.164 5.13335Z" fill="#BF9300"/>
<path d="M8.6875 6.94538L8.406 8.01538L7.9375 7.92188L8.422 6.54688L8.6875 6.94538ZM9.037 6.94538L9.318 8.01538L9.787 7.92188L9.3025 6.54688L9.037 6.94538Z" fill="#EEEEEE"/>
<path d="M8.38306 5.82025C8.38306 5.82025 8.42206 6.27325 8.62506 6.62475V5.71875C8.62506 5.71875 8.49206 5.79675 8.38306 5.82025ZM9.35956 5.83575C9.35956 5.83575 9.32056 6.28875 9.11756 6.64025V5.73425C9.11706 5.73425 9.25006 5.81225 9.35956 5.83575Z" fill="#BF9300"/>
<path d="M8.47644 4.28902C8.47644 4.28902 8.53094 4.23452 8.68744 4.34352C8.78894 4.41452 8.87894 4.46852 8.87894 4.46852C8.87894 4.46852 8.94294 4.40102 9.03694 4.41652C9.13094 4.43202 9.07844 4.56252 9.09394 4.83552C9.10944 5.10902 9.21894 5.22602 9.21894 5.22602L9.08594 5.14802L9.09394 5.23402L8.94544 5.16352L8.87494 5.26502L8.80444 5.15552L8.69044 5.22502L8.65594 5.13202L8.52294 5.20252C8.52294 5.20252 8.71844 4.96052 8.73394 4.69452C8.73844 4.61502 8.71844 4.43652 8.71844 4.43652C8.71844 4.43652 8.59394 4.28102 8.47644 4.28902Z" fill="#EEEEEE"/>
<path d="M7.77353 8.3284C7.68403 8.3819 7.71903 8.4144 7.77353 8.4379C7.82803 8.4614 8.15603 8.5009 8.82053 8.5159C9.50003 8.5314 9.92203 8.4534 9.97653 8.4219C10.031 8.3909 10.039 8.3359 9.94553 8.3204C9.85153 8.3049 9.38303 8.3829 8.81253 8.3829C8.10953 8.3834 7.81253 8.3049 7.77353 8.3284Z" fill="#BF9300"/>
</svg>
