<svg width="18" height="13" viewBox="0 0 18 13" fill="none" xmlns="http://www.w3.org/2000/svg">
<g clip-path="url(#clip0_2823_20240)">
<path fill-rule="evenodd" clip-rule="evenodd" d="M0 0V13H18V0H0Z" fill="#2E42A5"/>
<mask id="mask0_2823_20240" style="mask-type:luminance" maskUnits="userSpaceOnUse" x="0" y="0" width="18" height="13">
<path fill-rule="evenodd" clip-rule="evenodd" d="M0 0V13H18V0H0Z" fill="white"/>
</mask>
<g mask="url(#mask0_2823_20240)">
<path d="M-2.00415 12.0709L1.95697 13.6845L18.0895 1.75376L20.1792 -0.643659L15.9435 -1.18262L9.36341 3.95834L4.06691 7.42284L-2.00415 12.0709Z" fill="white"/>
<path d="M-1.46252 13.2014L0.556288 14.1374L19.4287 -0.866211H16.5954L-1.46252 13.2014Z" fill="#F50100"/>
<path d="M20.0042 12.0709L16.0431 13.6845L-0.0893896 1.75376L-2.17908 -0.643659L2.05655 -1.18262L8.63667 3.95834L13.9332 7.42284L20.0042 12.0709Z" fill="white"/>
<path d="M19.8692 12.8821L17.8509 13.8181L9.81507 7.39392L7.43232 6.67676L-2.38049 -0.635742H0.453382L10.26 6.50342L12.8649 7.36359L19.8692 12.8821Z" fill="#F50100"/>
<path fill-rule="evenodd" clip-rule="evenodd" d="M11.1251 -1.08301H6.87487V4.33366H-1.10925V8.66699H6.87487V14.0837H11.1251V8.66699H19.1407V4.33366H11.1251V-1.08301Z" fill="#F50100"/>
<mask id="mask1_2823_20240" style="mask-type:luminance" maskUnits="userSpaceOnUse" x="-2" y="-2" width="22" height="17">
<path fill-rule="evenodd" clip-rule="evenodd" d="M11.1251 -1.08301H6.87487V4.33366H-1.10925V8.66699H6.87487V14.0837H11.1251V8.66699H19.1407V4.33366H11.1251V-1.08301Z" fill="white"/>
</mask>
<g mask="url(#mask1_2823_20240)">
<path d="M6.87487 -1.08268V-2.16602H5.74987V-1.08268H6.87487ZM11.1251 -1.08268H12.2501V-2.16602H11.1251V-1.08268ZM6.87487 4.33398V5.41732H7.99987V4.33398H6.87487ZM-1.10925 4.33398V3.25065H-2.23425V4.33398H-1.10925ZM-1.10925 8.66732H-2.23425V9.75065H-1.10925V8.66732ZM6.87487 8.66732H7.99987V7.58398H6.87487V8.66732ZM6.87487 14.084H5.74987V15.1673H6.87487V14.084ZM11.1251 14.084V15.1673H12.2501V14.084H11.1251ZM11.1251 8.66732V7.58398H10.0001V8.66732H11.1251ZM19.1407 8.66732V9.75065H20.2657V8.66732H19.1407ZM19.1407 4.33398H20.2657V3.25065H19.1407V4.33398ZM11.1251 4.33398H10.0001V5.41732H11.1251V4.33398ZM6.87487 0.000651121H11.1251V-2.16602H6.87487V0.000651121ZM7.99987 4.33398V-1.08268H5.74987V4.33398H7.99987ZM-1.10925 5.41732H6.87487V3.25065H-1.10925V5.41732ZM0.0157471 8.66732V4.33398H-2.23425V8.66732H0.0157471ZM6.87487 7.58398H-1.10925V9.75065H6.87487V7.58398ZM7.99987 14.084V8.66732H5.74987V14.084H7.99987ZM11.1251 13.0007H6.87487V15.1673H11.1251V13.0007ZM10.0001 8.66732V14.084H12.2501V8.66732H10.0001ZM19.1407 7.58398H11.1251V9.75065H19.1407V7.58398ZM18.0157 4.33398V8.66732H20.2657V4.33398H18.0157ZM11.1251 5.41732H19.1407V3.25065H11.1251V5.41732ZM10.0001 -1.08268V4.33398H12.2501V-1.08268H10.0001Z" fill="white"/>
</g>
</g>
</g>
<defs>
<clipPath id="clip0_2823_20240">
<rect width="18" height="13" rx="2" fill="white"/>
</clipPath>
</defs>
</svg>
