<svg width="321" height="312" viewBox="0 0 321 312" fill="none" xmlns="http://www.w3.org/2000/svg">
<rect width="321" height="312" fill="white"/>
<path d="M173 35C173 31.6863 170.314 29 167 29V35H173Z" fill="white"/>
<rect x="169" y="84.1992" width="2.68047" height="0.253575" transform="rotate(-26.5712 169 84.1992)" fill="white"/>
<path d="M72.2998 68C72.2998 43.6995 91.9993 24 116.3 24H222.3V24C222.3 48.3005 202.6 68 178.3 68H72.2998V68Z" fill="#C96868"/>
<path d="M31.2998 108C31.2998 61.6081 68.9079 24 115.3 24V24V262H31.2998V108Z" fill="#C96868"/>
<path d="M70.2998 113C70.2998 88.1472 90.447 68 115.3 68V68V304H70.2998V113Z" fill="white"/>
<path d="M62.2998 126H168.3L150.3 152H62.2998V126Z" fill="#C96868"/>
<rect x="246.3" y="24" width="37" height="238" fill="#018477"/>
<path d="M193.3 122H257.3C273.868 122 287.3 135.431 287.3 152V152H193.3V122Z" fill="white"/>
<path d="M177.811 126H257.3C271.659 126 283.3 137.641 283.3 152H161.3L177.811 126Z" fill="#018477"/>
<rect width="156" height="100.396" transform="translate(84.2998 182)" fill="white"/>
<path d="M127.507 212.12H142.462C143.033 212.12 143.589 212.324 144.052 212.703C144.515 213.082 144.862 213.617 145.042 214.233L150.48 232.767C150.708 233.546 150.655 234.395 150.331 235.128C150.008 235.862 149.442 236.419 148.756 236.678C148.071 236.937 147.324 236.876 146.678 236.509C146.033 236.142 145.542 235.498 145.314 234.72L141.102 220.343V258.456C141.102 259.276 140.816 260.061 140.306 260.641C139.796 261.22 139.104 261.546 138.383 261.546C137.662 261.546 136.97 261.22 136.461 260.641C135.951 260.061 135.664 259.276 135.664 258.456V239.922H132.945V258.456C132.945 259.276 132.659 260.061 132.149 260.641C131.639 261.22 130.947 261.546 130.226 261.546C129.505 261.546 128.813 261.22 128.303 260.641C127.793 260.061 127.507 259.276 127.507 258.456V220.343L123.29 234.72C123.062 235.498 122.571 236.142 121.926 236.509C121.28 236.876 120.532 236.937 119.847 236.678C119.162 236.419 118.596 235.862 118.273 235.128C117.949 234.395 117.896 233.546 118.124 232.767L123.562 214.233C123.742 213.616 124.089 213.08 124.554 212.701C125.018 212.322 125.576 212.118 126.147 212.12H127.507Z" fill="#018477"/>
<path d="M134.349 209.889C137.465 209.889 139.992 207.363 139.992 204.246C139.992 201.13 137.465 198.604 134.349 198.604C131.232 198.604 128.706 201.13 128.706 204.246C128.706 207.363 131.232 209.889 134.349 209.889Z" fill="#018477"/>
<path d="M163.836 224.49C165.563 224.49 166.962 225.89 166.962 227.617C166.962 229.344 165.562 230.743 163.836 230.743C162.109 230.743 160.709 229.344 160.709 227.617C160.709 225.89 162.109 224.49 163.836 224.49Z" fill="#018477"/>
<path d="M163.836 224.49C165.563 224.49 166.962 225.89 166.962 227.617C166.962 229.344 165.562 230.743 163.836 230.743C162.109 230.743 160.709 229.344 160.709 227.617C160.709 225.89 162.109 224.49 163.836 224.49Z" stroke="white"/>
<path d="M174.607 224.881C175.146 224.342 176.013 224.342 176.552 224.881C177.09 225.404 177.09 226.272 176.552 226.811L168.145 235.218V260.111C168.145 260.44 168.055 260.755 167.905 261.039C167.801 261.204 167.695 261.353 167.561 261.487C167.516 261.532 167.471 261.563 167.426 261.607C167.127 261.847 166.768 261.996 166.379 262.041C166.319 262.056 166.259 262.056 166.185 262.056C165.108 262.056 164.225 261.174 164.225 260.097V246.393C164.224 246.183 164.045 246.004 163.836 246.004C163.627 246.004 163.448 246.183 163.447 246.393V260.097C163.447 261.174 162.564 262.056 161.487 262.056C161.428 262.056 161.353 262.041 161.293 262.041C160.889 262.011 160.529 261.847 160.245 261.607C160.2 261.578 160.155 261.532 160.11 261.487C159.976 261.353 159.856 261.203 159.767 261.039C159.617 260.77 159.527 260.455 159.527 260.111V235.232L155.548 231.254L151.12 226.825C150.582 226.287 150.582 225.419 151.12 224.881C151.659 224.342 152.526 224.342 153.064 224.881L157.493 229.309L159.019 230.835C159.482 231.298 160.081 231.522 160.679 231.522H166.992C167.591 231.522 168.19 231.299 168.653 230.835L170.179 229.309L174.607 224.881Z" fill="#018477"/>
<path d="M174.607 224.881C175.146 224.342 176.013 224.342 176.552 224.881C177.09 225.404 177.09 226.272 176.552 226.811L168.145 235.218V260.111C168.145 260.44 168.055 260.755 167.905 261.039C167.801 261.204 167.695 261.353 167.561 261.487C167.516 261.532 167.471 261.563 167.426 261.607C167.127 261.847 166.768 261.996 166.379 262.041C166.319 262.056 166.259 262.056 166.185 262.056C165.108 262.056 164.225 261.174 164.225 260.097V246.393C164.224 246.183 164.045 246.004 163.836 246.004C163.627 246.004 163.448 246.183 163.447 246.393V260.097C163.447 261.174 162.564 262.056 161.487 262.056C161.428 262.056 161.353 262.041 161.293 262.041C160.889 262.011 160.529 261.847 160.245 261.607C160.2 261.578 160.155 261.532 160.11 261.487C159.976 261.353 159.856 261.203 159.767 261.039C159.617 260.77 159.527 260.455 159.527 260.111V235.232L155.548 231.254L151.12 226.825C150.582 226.287 150.582 225.419 151.12 224.881C151.659 224.342 152.526 224.342 153.064 224.881L157.493 229.309L159.019 230.835C159.482 231.298 160.081 231.522 160.679 231.522H166.992C167.591 231.522 168.19 231.299 168.653 230.835L170.179 229.309L174.607 224.881Z" stroke="white"/>
<path d="M187.249 209.505C190.366 209.505 192.892 206.978 192.892 203.862C192.892 200.745 190.366 198.219 187.249 198.219C184.133 198.219 181.606 200.745 181.606 203.862C181.606 206.978 184.133 209.505 187.249 209.505Z" fill="#C96868"/>
<path d="M206.79 200.063C205.872 199.148 204.393 199.148 203.475 200.063L193.377 210.119C192.663 210.83 191.643 211.287 190.521 211.287H183.891C182.769 211.287 181.749 210.83 181.035 210.119L170.937 200.063C170.019 199.148 168.54 199.148 167.622 200.063C166.704 200.977 166.704 202.45 167.622 203.364L179.785 215.477C180.652 216.34 181.57 217.203 181.315 218.879C181.315 218.879 179.938 230.078 179.938 230.332C179.887 230.637 179.887 230.941 179.887 231.195V259.459C179.887 261.439 181.366 263.064 183.202 263.064C185.038 263.064 186.517 261.439 186.517 259.459V236.477C186.517 236.122 186.823 235.817 187.18 235.817C187.537 235.817 187.843 236.122 187.843 236.477V259.408C187.843 261.388 189.322 263.014 191.158 263.014C192.994 263.014 194.473 261.388 194.473 259.408V231.17C194.473 230.916 194.473 230.56 194.422 230.307C194.371 230.103 193.045 218.854 193.045 218.854C192.841 217.127 193.708 216.315 194.575 215.451L206.79 203.288C207.708 202.45 207.708 200.977 206.79 200.063Z" fill="#C96868"/>
<path d="M181.337 217.912H193.05L197.052 239.536H177.359L181.337 217.912Z" fill="#C96868"/>
<path d="M220.508 127.629C222.598 127.346 224.522 128.811 224.806 130.901C225.089 132.991 223.624 134.916 221.534 135.2L195.214 138.767C193.124 139.05 191.2 137.585 190.916 135.495C190.633 133.404 192.098 131.48 194.188 131.197L220.508 127.629Z" fill="#018477" stroke="white" stroke-width="2.13749"/>
<path d="M239.376 125.073C241.574 124.775 243.597 126.315 243.895 128.513C244.193 130.711 242.653 132.734 240.455 133.032L217.703 136.116C215.505 136.414 213.481 134.874 213.183 132.676C212.885 130.478 214.426 128.455 216.624 128.157L239.376 125.073Z" fill="#018477" stroke="white" stroke-width="2.13749"/>
<path d="M263.315 144.476C261.73 132.778 250.961 124.58 239.263 126.166V126.166L262.422 297.017L283.603 294.146L263.315 144.476Z" fill="#018477"/>
<rect x="213.868" y="150.691" width="4" height="6" transform="rotate(10.2939 213.868 150.691)" fill="white"/>
<rect x="222.3" y="262" width="94" height="35" fill="white"/>
<rect x="230.3" y="152" width="16" height="54" fill="white"/>
<path d="M221.24 148.475L239.541 145.994C241.817 145.686 243.913 147.281 244.221 149.557C244.53 151.833 242.935 153.929 240.658 154.237L222.357 156.718C220.081 157.027 217.986 155.431 217.677 153.155C217.368 150.879 218.964 148.784 221.24 148.475Z" fill="#018477" stroke="white"/>
<path d="M224.437 128.178L233.181 126.992C248.238 124.951 262.099 135.503 264.14 150.56V150.56L228.132 155.441L224.437 128.178Z" fill="#018477"/>
<path d="M214.584 134.066L229.086 132.101C233.945 131.442 238.417 134.847 239.076 139.706V139.706C239.734 144.564 236.33 149.037 231.471 149.696L216.969 151.661L214.584 134.066Z" fill="white"/>
<path d="M218.315 135.332C220.405 135.049 222.33 136.514 222.614 138.604C222.897 140.695 221.432 142.619 219.341 142.903L201.494 145.322C199.404 145.605 197.48 144.14 197.197 142.049C196.913 139.959 198.378 138.035 200.468 137.751L218.315 135.332Z" fill="#018477" stroke="white" stroke-width="2.13749"/>
<path d="M223.537 142.026C225.628 141.743 227.552 143.207 227.835 145.297C228.118 147.388 226.654 149.313 224.563 149.596L208.834 151.728C206.744 152.011 204.82 150.546 204.536 148.455C204.253 146.365 205.718 144.441 207.808 144.158L223.537 142.026Z" fill="#018477" stroke="white" stroke-width="2.13749"/>
<path d="M93.9924 146.569C95.1927 144.675 97.7006 144.114 99.594 145.314C101.487 146.514 102.049 149.022 100.849 150.915L86.8525 172.995C85.6523 174.888 83.1446 175.451 81.2512 174.251C79.3577 173.051 78.7956 170.542 79.9959 168.649L93.9924 146.569Z" fill="#C96868" stroke="white" stroke-width="2.02965"/>
<path d="M64.5833 136.29C67.5522 134.458 71.4444 135.379 73.2766 138.348C75.1088 141.317 74.1872 145.21 71.2183 147.042L47.1761 161.879C44.2072 163.711 40.3153 162.789 38.4831 159.82C36.651 156.851 37.5723 152.96 40.5411 151.128L64.5833 136.29Z" fill="#C96868" stroke="white" stroke-width="1.46571"/>
<path d="M82.9961 167.748C85.0823 167.748 86.7734 169.439 86.7734 171.525C86.7732 173.611 85.0821 175.303 82.9961 175.303H50.5225C48.4364 175.303 46.7454 173.611 46.7451 171.525C46.7451 169.439 48.4363 167.748 50.5225 167.748H82.9961Z" fill="#C96868" stroke="white" stroke-width="1.46571"/>
<path d="M89.9308 138.034C91.1311 136.141 93.6395 135.579 95.533 136.779C97.4262 137.979 97.9876 140.487 96.7875 142.381L82.8721 164.333C81.6719 166.226 79.1642 166.789 77.2707 165.589C75.3772 164.388 74.8151 161.88 76.0154 159.987L89.9308 138.034Z" fill="#C96868" stroke="white" stroke-width="2.02965"/>
<path d="M84.8955 159.986L82.4398 163.668C81.9985 164.33 81.1044 164.508 80.4428 164.067V164.067C79.7812 163.626 79.6026 162.732 80.0439 162.07L82.4996 158.388L84.8955 159.986Z" fill="white"/>
<path d="M82.998 151.229C85.2397 151.23 87.0566 153.047 87.0566 155.289C87.0564 157.531 85.2396 159.347 82.998 159.348H54.583C52.3413 159.348 50.5237 157.531 50.5234 155.289C50.5234 153.047 52.3411 151.229 54.583 151.229H82.998Z" fill="#C96868" stroke="white" stroke-width="2.02965"/>
<path d="M78.9375 159.349C81.1792 159.349 82.9961 161.166 82.9961 163.408C82.9959 165.65 81.179 167.467 78.9375 167.467H50.5225C48.2807 167.467 46.4631 165.65 46.4629 163.408C46.4629 161.166 48.2806 159.349 50.5225 159.349H78.9375Z" fill="#C96868" stroke="white" stroke-width="2.02965"/>
<rect x="39.3594" y="152.244" width="22.3261" height="22.3261" fill="#C96868"/>
<rect x="35.2998" y="152.244" width="22.3261" height="22.3261" fill="#C96868"/>
<rect x="49.5078" y="148.184" width="15.2224" height="6.08894" fill="#C96868"/>
<path d="M65.7441 160.363H60.67C60.1096 160.363 59.6552 159.909 59.6552 159.348V159.348C59.6552 158.788 60.1096 158.334 60.67 158.334H65.7441V160.363Z" fill="white"/>
<path d="M65.7441 168.48H60.67C60.1096 168.48 59.6552 168.026 59.6552 167.466V167.466C59.6552 166.905 60.1096 166.451 60.67 166.451H65.7441V168.48Z" fill="white"/>
<path d="M63.716 151.23L64.7308 150.215V152.244H62.7012L63.716 151.23Z" fill="white"/>
<rect x="55.5967" y="152.244" width="4.05929" height="2.02965" fill="#C96868"/>
<path d="M81.794 173.394C80.3739 172.493 79.9524 170.612 80.8526 169.192L95.0058 146.865C95.906 145.445 97.787 145.023 99.2071 145.924V145.924C100.627 146.824 101.049 148.705 100.149 150.125L85.9954 172.452C85.0952 173.872 83.2142 174.294 81.794 173.394V173.394Z" fill="#C96868"/>
<path d="M23 151.1H41V151.1C41 151.74 40.4807 152.26 39.84 152.26H23V151.1Z" fill="white"/>
<path d="M29.4346 174.6H51.1648V174.6C51.1648 175.373 50.5378 176 49.7644 176H29.4346V174.6Z" fill="white"/>
</svg>
