<svg width="50" height="50" viewBox="0 0 50 50" fill="none" xmlns="http://www.w3.org/2000/svg">
<rect width="50" height="50" rx="25" fill="white"/>
<path d="M25 30.7192C33.1171 30.7192 39.6973 24.139 39.6973 16.022C39.6973 7.9049 33.1171 1.32471 25 1.32471C16.8829 1.32471 10.3027 7.9049 10.3027 16.022C10.3027 24.139 16.8829 30.7192 25 30.7192Z" fill="#5B412C"/>
<path d="M36.0238 44.1095C36.0238 50.1978 13.9766 50.1978 13.9766 44.1095C13.9766 38.0214 18.912 33.0859 25.0001 33.0859C31.0884 33.0859 36.0238 38.0214 36.0238 44.1095Z" fill="#0A717F"/>
<path d="M25.0002 33.0859C19.5587 33.0859 15.0385 37.0289 14.1396 42.2136C16.036 47.137 33.9646 47.137 35.8608 42.2136C34.9621 37.0289 30.4419 33.0859 25.0002 33.0859Z" fill="#19929B"/>
<path d="M25.0002 39.0277C27.412 39.0277 29.3671 37.0726 29.3671 34.6608C29.3671 32.2491 27.412 30.2939 25.0002 30.2939C22.5884 30.2939 20.6333 32.2491 20.6333 34.6608C20.6333 37.0726 22.5884 39.0277 25.0002 39.0277Z" fill="#FFBF94"/>
<path d="M25.0002 30.2939C23.0529 30.2939 21.4039 31.569 20.8408 33.3295C21.4039 35.0899 23.0528 36.3649 25.0002 36.3649C26.9477 36.3649 28.5968 35.0899 29.1598 33.3295C28.5967 31.569 26.9476 30.2939 25.0002 30.2939Z" fill="#ED9572"/>
<path d="M17.0786 14.6548C17.0786 18.4571 13.3153 21.1606 12.6828 20.5048C11.5109 19.2898 10.731 17.1241 10.731 14.6548C10.731 10.8523 12.5804 7.77002 14.8618 7.77002C17.1433 7.77002 17.0786 10.8523 17.0786 14.6548Z" fill="#7C4E2E"/>
<path d="M11.3996 26.5663C13.3702 26.5663 14.9677 24.9688 14.9677 22.9982C14.9677 21.0277 13.3702 19.4302 11.3996 19.4302C9.42902 19.4302 7.83154 21.0277 7.83154 22.9982C7.83154 24.9688 9.42902 26.5663 11.3996 26.5663Z" fill="#FFBF94"/>
<path d="M11.3995 25.1813C9.66592 25.1813 8.22158 23.9448 7.89922 22.3057C7.85518 22.5297 7.83154 22.761 7.83154 22.998C7.83154 24.9686 9.429 26.566 11.3996 26.566C13.3702 26.566 14.9677 24.9686 14.9677 22.998C14.9677 22.761 14.944 22.5297 14.9 22.3057C14.5774 23.9448 13.1331 25.1813 11.3995 25.1813Z" fill="#ED9572"/>
<path d="M38.6008 26.5663C40.5714 26.5663 42.1688 24.9688 42.1688 22.9982C42.1688 21.0277 40.5714 19.4302 38.6008 19.4302C36.6302 19.4302 35.0327 21.0277 35.0327 22.9982C35.0327 24.9688 36.6302 26.5663 38.6008 26.5663Z" fill="#FFBF94"/>
<path d="M38.6008 25.1813C36.8672 25.1813 35.4229 23.9448 35.1004 22.3057C35.0563 22.5297 35.0327 22.761 35.0327 22.998C35.0327 24.9686 36.6303 26.566 38.6008 26.566C40.5715 26.566 42.1688 24.9686 42.1688 22.998C42.1688 22.761 42.1452 22.5297 42.1012 22.3057C41.7788 23.9448 40.3343 25.1813 38.6008 25.1813Z" fill="#ED9572"/>
<path d="M37.4998 17.6726C37.2208 11.0099 32.0532 5.69346 25.003 5.69053C25.0021 5.69053 25.0011 5.69043 25 5.69043C24.999 5.69043 24.998 5.69043 24.9972 5.69043C17.947 5.69336 12.7795 11.01 12.5004 17.6726H12.4883V25.3411H12.5004C12.7794 32.0036 18.3725 35.1911 24.9972 35.1931C24.9981 35.1931 24.9991 35.1931 25 35.1931C25.0012 35.1931 25.0021 35.1931 25.003 35.1931C31.6276 35.1911 37.2208 32.0036 37.4998 25.3411H37.5118V17.6726H37.4998Z" fill="#FFF4EA"/>
<path d="M37.4998 17.6726C37.2208 11.0099 32.0532 5.69346 25.003 5.69053C25.0021 5.69053 25.0011 5.69043 25 5.69043C24.999 5.69043 24.998 5.69043 24.9972 5.69043C17.947 5.69336 12.7795 11.01 12.5004 17.6726H12.4883V25.3411H12.5004C12.7794 32.0036 18.3725 35.1911 24.9972 35.1931C24.9981 35.1931 24.9991 35.1931 25 35.1931C25.0012 35.1931 25.0021 35.1931 25.003 35.1931C31.6276 35.1911 37.2208 32.0036 37.4998 25.3411H37.5118V17.6726H37.4998Z" fill="#FFBF94"/>
<path d="M29.3662 34.6855C29.3528 37.0859 27.4033 39.0278 24.9999 39.0278C22.5931 39.0278 20.6413 37.0805 20.6335 34.6754C20.297 34.5905 19.9672 34.4947 19.6446 34.3887C19.6401 34.4789 19.6377 34.5696 19.6377 34.6609C19.6377 37.6225 22.0385 40.0232 24.9999 40.0232C27.9615 40.0232 30.3623 37.6225 30.3623 34.6609C30.3623 34.5741 30.3599 34.488 30.3559 34.4022C30.0328 34.5072 29.7028 34.6016 29.3662 34.6855Z" fill="white"/>
<path d="M24.6226 3.76611C30.6152 3.76611 32.5013 6.5376 35.2801 8.8918C37.562 10.8254 40.8691 9.98818 40.8691 10.0604C40.8691 12.8105 30.4817 15.0399 24.6226 15.0399C18.7634 15.0399 14.5996 12.8105 14.5996 10.0604C14.5996 7.31016 18.7634 3.76611 24.6226 3.76611Z" fill="#7C4E2E"/>
<path d="M13.8789 44.1092C13.8789 45.7746 15.5294 46.9838 17.9262 47.738V35.5762C15.4563 37.5977 13.8789 40.6686 13.8789 44.1092Z" fill="#E5E5E5"/>
<path d="M36.1214 44.1092C36.1214 41.0036 34.8364 38.1988 32.77 36.1953V47.4985C34.7847 46.7378 36.1214 45.6081 36.1214 44.1092Z" fill="#E5E5E5"/>
<path d="M14.042 42.2137C14.5126 43.4354 15.9711 44.3537 17.9263 44.969V35.5762C15.9206 37.2178 14.5035 39.5515 14.042 42.2137Z" fill="white"/>
<path d="M35.9583 42.2134C35.5522 39.8706 34.406 37.7821 32.77 36.1958V44.7286C34.3718 44.1233 35.5453 43.2853 35.9583 42.2134Z" fill="white"/>
<path d="M17.012 29.3351C18.659 29.3351 19.9942 27.9999 19.9942 26.3528C19.9942 24.7058 18.659 23.3706 17.012 23.3706C15.365 23.3706 14.0298 24.7058 14.0298 26.3528C14.0298 27.9999 15.365 29.3351 17.012 29.3351Z" fill="#F97A7A"/>
<path d="M32.9881 29.3351C34.6351 29.3351 35.9703 27.9999 35.9703 26.3528C35.9703 24.7058 34.6351 23.3706 32.9881 23.3706C31.341 23.3706 30.0059 24.7058 30.0059 26.3528C30.0059 27.9999 31.341 29.3351 32.9881 29.3351Z" fill="#F97A7A"/>
<path d="M20.3398 22.8384C21.281 22.8384 22.0439 22.0754 22.0439 21.1343C22.0439 20.1931 21.281 19.4302 20.3398 19.4302C19.3987 19.4302 18.6357 20.1931 18.6357 21.1343C18.6357 22.0754 19.3987 22.8384 20.3398 22.8384Z" fill="#493E2F"/>
<path d="M29.627 22.8384C30.5681 22.8384 31.3311 22.0754 31.3311 21.1343C31.3311 20.1931 30.5681 19.4302 29.627 19.4302C28.6858 19.4302 27.9229 20.1931 27.9229 21.1343C27.9229 22.0754 28.6858 22.8384 29.627 22.8384Z" fill="#493E2F"/>
<path d="M25.0534 28.6848C24.167 28.6848 23.2806 28.3474 22.6057 27.6726C22.3769 27.4437 22.3769 27.0727 22.6057 26.8439C22.8345 26.6152 23.2056 26.6152 23.4343 26.8439C24.3273 27.737 25.7799 27.7368 26.6726 26.8439C26.9015 26.6152 27.2725 26.6152 27.5013 26.8439C27.7302 27.0728 27.7302 27.4438 27.5013 27.6726C26.8265 28.3474 25.94 28.6848 25.0534 28.6848Z" fill="#F97A7A"/>
</svg>
