<svg width="50" height="50" viewBox="0 0 50 50" fill="none" xmlns="http://www.w3.org/2000/svg">
<rect width="50" height="50" rx="25" fill="white"/>
<path d="M30.9374 2.04065C24.7839 2.06951 24.7503 3.36939 24.7671 3.36939C24.7839 3.36939 24.9792 2.06951 18.5967 2.04065C13.2693 2.04065 8.91064 5.93743 8.91064 10.6647C8.91064 10.6647 8.91064 20.7093 8.91064 21.2211V23.1276C8.91064 24.033 9.74561 24.7741 10.7661 24.7741C10.8328 24.7741 10.8984 24.7705 10.9633 24.7644C10.6163 24.6124 10.3755 24.2956 10.3755 23.9306V22.6712C10.3755 22.3547 10.5565 22.0748 10.8309 21.9069C10.905 21.995 10.9813 22.0816 11.0591 22.167V23.9941C11.0591 24.8996 11.894 25.6406 12.9146 25.6406C12.9812 25.6406 13.0469 25.6371 13.1117 25.631C12.7647 25.479 12.5239 25.1622 12.5239 24.7972V23.4683C14.1882 24.6629 16.3023 25.3807 18.5967 25.3807C22.7246 25.3807 26.8096 25.3807 30.9374 25.3807C33.2317 25.3807 35.3459 24.6629 37.0103 23.4683V24.7972C37.0103 25.1622 36.7693 25.479 36.4224 25.631C36.4872 25.6371 36.5528 25.6406 36.6196 25.6406C37.64 25.6406 38.4751 24.8996 38.4751 23.9941V22.167C38.5527 22.0815 38.6292 21.9949 38.7032 21.9069C38.9775 22.0748 39.1587 22.3547 39.1587 22.6712V23.9306C39.1587 24.2956 38.9178 24.6124 38.5708 24.7644C38.6356 24.7705 38.7013 24.7741 38.7681 24.7741C39.7885 24.7741 40.6235 24.033 40.6235 23.1276V21.2211C40.6235 20.7093 40.6235 10.6647 40.6235 10.6647C40.6234 5.93734 36.2646 2.04065 30.9374 2.04065Z" fill="#5B412C"/>
<path d="M35.7909 43.3933C35.7909 49.4816 13.7437 49.4816 13.7437 43.3933C13.7437 37.3052 18.6791 32.3698 24.7673 32.3698C30.8555 32.3698 35.7909 37.3052 35.7909 43.3933Z" fill="#37817D"/>
<mask id="mask0_2077_18814" style="mask-type:luminance" maskUnits="userSpaceOnUse" x="13" y="32" width="23" height="16">
<path d="M35.7909 43.3933C35.7909 49.4816 13.7437 49.4816 13.7437 43.3933C13.7437 37.3052 18.6791 32.3698 24.7673 32.3698C30.8555 32.3698 35.7909 37.3052 35.7909 43.3933Z" fill="white"/>
</mask>
<g mask="url(#mask0_2077_18814)">
<path d="M36.0528 37.327H13.4941V38.8529H36.0528V37.327Z" fill="#1909F6"/>
</g>
<mask id="mask1_2077_18814" style="mask-type:luminance" maskUnits="userSpaceOnUse" x="13" y="32" width="23" height="16">
<path d="M35.7909 43.3933C35.7909 49.4816 13.7437 49.4816 13.7437 43.3933C13.7437 37.3052 18.6791 32.3698 24.7673 32.3698C30.8555 32.3698 35.7909 37.3052 35.7909 43.3933Z" fill="white"/>
</mask>
<g mask="url(#mask1_2077_18814)">
<path d="M36.0528 34.3973H13.4941V35.9232H36.0528V34.3973Z" fill="#1909F6"/>
</g>
<mask id="mask2_2077_18814" style="mask-type:luminance" maskUnits="userSpaceOnUse" x="13" y="32" width="23" height="16">
<path d="M35.7909 43.3933C35.7909 49.4816 13.7437 49.4816 13.7437 43.3933C13.7437 37.3052 18.6791 32.3698 24.7673 32.3698C30.8555 32.3698 35.7909 37.3052 35.7909 43.3933Z" fill="white"/>
</mask>
<g mask="url(#mask2_2077_18814)">
<path d="M36.0528 40.0736H13.4941V41.5995H36.0528V40.0736Z" fill="#1909F6"/>
</g>
<mask id="mask3_2077_18814" style="mask-type:luminance" maskUnits="userSpaceOnUse" x="13" y="32" width="23" height="16">
<path d="M35.7909 43.3933C35.7909 49.4816 13.7437 49.4816 13.7437 43.3933C13.7437 37.3052 18.6791 32.3698 24.7673 32.3698C30.8555 32.3698 35.7909 37.3052 35.7909 43.3933Z" fill="white"/>
</mask>
<g mask="url(#mask3_2077_18814)">
<path d="M36.0528 42.8202H13.4941V44.3461H36.0528V42.8202Z" fill="#1909F6"/>
</g>
<mask id="mask4_2077_18814" style="mask-type:luminance" maskUnits="userSpaceOnUse" x="13" y="32" width="23" height="16">
<path d="M35.7909 43.3933C35.7909 49.4816 13.7437 49.4816 13.7437 43.3933C13.7437 37.3052 18.6791 32.3698 24.7673 32.3698C30.8555 32.3698 35.7909 37.3052 35.7909 43.3933Z" fill="white"/>
</mask>
<g mask="url(#mask4_2077_18814)">
<path d="M36.0528 45.5668H13.4941V47.0927H36.0528V45.5668Z" fill="#1909F6"/>
</g>
<path d="M24.7672 38.3115C27.1789 38.3115 29.134 36.3564 29.134 33.9447C29.134 31.533 27.1789 29.5779 24.7672 29.5779C22.3555 29.5779 20.4004 31.533 20.4004 33.9447C20.4004 36.3564 22.3555 38.3115 24.7672 38.3115Z" fill="#FFBF94"/>
<path d="M24.7674 29.5778C22.8199 29.5778 21.171 30.8529 20.6079 32.6133C21.1711 34.3738 22.8199 35.6489 24.7674 35.6489C26.7146 35.6489 28.3638 34.3738 28.9268 32.6133C28.3637 30.8529 26.7146 29.5778 24.7674 29.5778Z" fill="#ED9572"/>
<path d="M28.9872 33.5546L24.9497 37.5921C24.9469 37.5949 24.9447 37.5982 24.9419 37.6012C24.8523 37.6936 24.7962 37.7992 24.7672 37.9085C24.7382 37.7992 24.6819 37.6936 24.5923 37.6012C24.5895 37.5982 24.5874 37.595 24.5845 37.5921L20.547 33.5546C20.1042 33.1119 19.3472 33.4255 19.3472 34.0516V37.1126V38.0891C19.3472 38.4773 19.6618 38.792 20.05 38.792H24.0875C24.438 38.792 24.6902 38.5547 24.7671 38.2681C24.8438 38.5548 25.0962 38.792 25.4467 38.792H29.4842C29.8724 38.792 30.187 38.4772 30.187 38.0891V37.1126V34.0516C30.1871 33.4254 29.4299 33.1118 28.9872 33.5546Z" fill="white"/>
<path d="M11.3996 25.85C13.3702 25.85 14.9677 24.2525 14.9677 22.2819C14.9677 20.3113 13.3702 18.7139 11.3996 18.7139C9.42902 18.7139 7.83154 20.3113 7.83154 22.2819C7.83154 24.2525 9.42902 25.85 11.3996 25.85Z" fill="#FFBF94"/>
<path d="M11.3996 24.4654C9.66592 24.4654 8.22158 23.2289 7.89922 21.5897C7.85518 21.8136 7.83154 22.0451 7.83154 22.282C7.83154 24.2525 9.429 25.8501 11.3996 25.8501C13.3702 25.8501 14.9676 24.2526 14.9676 22.282C14.9676 22.0451 14.9439 21.8137 14.8999 21.5897C14.5775 23.2289 13.1332 24.4654 11.3996 24.4654Z" fill="#ED9572"/>
<path d="M38.6008 25.85C40.5714 25.85 42.1688 24.2525 42.1688 22.2819C42.1688 20.3113 40.5714 18.7139 38.6008 18.7139C36.6302 18.7139 35.0327 20.3113 35.0327 22.2819C35.0327 24.2525 36.6302 25.85 38.6008 25.85Z" fill="#FFBF94"/>
<path d="M38.6008 24.4654C36.8672 24.4654 35.4229 23.2289 35.1004 21.5897C35.0563 21.8136 35.0327 22.0451 35.0327 22.282C35.0327 24.2525 36.6303 25.8501 38.6008 25.8501C40.5715 25.8501 42.1688 24.2526 42.1688 22.282C42.1688 22.0451 42.1452 21.8137 42.1012 21.5897C41.7788 23.2289 40.3343 24.4654 38.6008 24.4654Z" fill="#ED9572"/>
<path d="M37.2667 17.0542C36.9877 10.3916 31.8201 5.07517 24.7699 5.07214C24.7689 5.07214 24.768 5.07214 24.7671 5.07214C24.7659 5.07214 24.765 5.07214 24.7641 5.07214C17.7139 5.07517 12.5464 10.3916 12.2674 17.0542H12.2554V24.7227H12.2674C12.5464 31.3852 18.1395 34.5728 24.7641 34.5747C24.765 34.5747 24.766 34.5747 24.7671 34.5747C24.7681 34.5747 24.769 34.5747 24.7699 34.5747C31.3945 34.5727 36.9877 31.3852 37.2667 24.7227H37.2787V17.0542H37.2667Z" fill="#FFBF94"/>
<path d="M24.7675 9.10437C31.2842 9.10437 36.7159 12.9873 37.9376 18.1376C38.1061 17.427 38.1953 16.6924 38.1953 15.9403C38.1953 9.73787 32.1833 4.70984 24.7676 4.70984C17.3516 4.70984 11.3398 9.73787 11.3398 15.9403C11.3398 16.6924 11.4289 17.427 11.5976 18.1376C12.8189 12.9873 18.2507 9.10437 24.7675 9.10437Z" fill="#7C4E2E"/>
<path d="M21.3003 14.7314V11.4481C21.3003 10.1053 22.3989 9.20203 23.7417 9.20203C24.1049 9.20203 24.4498 9.08767 24.7603 9.23152C24.4998 7.93806 23.3511 6.95593 21.9839 6.95593C20.4263 6.95593 19.1519 8.23035 19.1519 9.78796V13.5966C19.1519 15.1542 20.4263 16.4286 21.9839 16.4286C21.9863 16.4286 21.989 16.4284 21.9914 16.4284C21.5645 15.9883 21.3003 15.3893 21.3003 14.7314Z" fill="#7C4E2E"/>
<path d="M28.2341 14.7314V11.4481C28.2341 10.1053 27.1354 9.20203 25.7927 9.20203C25.4295 9.20203 25.0845 9.08767 24.7739 9.23152C25.0343 7.93806 26.1831 6.95593 27.5505 6.95593C29.108 6.95593 30.3825 8.23035 30.3825 9.78796V13.5966C30.3825 15.1542 29.108 16.4286 27.5505 16.4286C27.5479 16.4286 27.5453 16.4284 27.5429 16.4284C27.9699 15.9883 28.2341 15.3893 28.2341 14.7314Z" fill="#7C4E2E"/>
<path d="M21.2984 28.7458V26.3196C21.2984 25.3273 22.4738 24.6598 23.9103 24.6598C24.2989 24.6598 24.6679 24.5753 25 24.6816C24.7214 23.7258 23.4924 23 22.0298 23C20.3634 23 19 23.9418 19 25.0928V27.9072C19 29.0582 20.3634 30 22.0298 30C22.0324 30 22.0352 29.9999 22.0378 29.9999C21.5811 29.6746 21.2984 29.232 21.2984 28.7458Z" fill="#7C4E2E"/>
<path d="M28.7016 28.7458V26.3196C28.7016 25.3273 27.5263 24.6598 26.0898 24.6598C25.7013 24.6598 25.3322 24.5753 25 24.6816C25.2785 23.7258 26.5075 23 27.9703 23C29.6365 23 31 23.9418 31 25.0928V27.9072C31 29.0582 29.6365 30 27.9703 30C27.9675 30 27.9648 29.9999 27.9622 29.9999C28.419 29.6746 28.7016 29.232 28.7016 28.7458Z" fill="#7C4E2E"/>
<path d="M16.7791 28.6191C18.4261 28.6191 19.7613 27.2839 19.7613 25.6369C19.7613 23.9899 18.4261 22.6547 16.7791 22.6547C15.1321 22.6547 13.7969 23.9899 13.7969 25.6369C13.7969 27.2839 15.1321 28.6191 16.7791 28.6191Z" fill="#F97A7A"/>
<path d="M32.7552 28.6191C34.4022 28.6191 35.7374 27.2839 35.7374 25.6369C35.7374 23.9899 34.4022 22.6547 32.7552 22.6547C31.1081 22.6547 29.7729 23.9899 29.7729 25.6369C29.7729 27.2839 31.1081 28.6191 32.7552 28.6191Z" fill="#F97A7A"/>
<path d="M20.0601 22.1222C21.0012 22.1222 21.7642 21.3592 21.7642 20.4181C21.7642 19.4769 21.0012 18.714 20.0601 18.714C19.1189 18.714 18.356 19.4769 18.356 20.4181C18.356 21.3592 19.1189 22.1222 20.0601 22.1222Z" fill="#493E2F"/>
<path d="M29.4448 22.1222C30.386 22.1222 31.1489 21.3592 31.1489 20.4181C31.1489 19.4769 30.386 18.714 29.4448 18.714C28.5037 18.714 27.7407 19.4769 27.7407 20.4181C27.7407 21.3592 28.5037 22.1222 29.4448 22.1222Z" fill="#493E2F"/>
<path d="M24.8206 27.9689C23.9341 27.9689 23.0477 27.6315 22.3728 26.9567C22.144 26.7278 22.144 26.3568 22.3728 26.128C22.6016 25.8992 22.9728 25.8992 23.2014 26.128C24.0944 27.021 25.547 27.0208 26.4398 26.128C26.6685 25.8992 27.0397 25.8992 27.2683 26.128C27.4972 26.3569 27.4972 26.7279 27.2683 26.9567C26.5935 27.6315 25.7072 27.9689 24.8206 27.9689Z" fill="#F97A7A"/>
</svg>
