<svg width="50" height="50" viewBox="0 0 50 50" fill="none" xmlns="http://www.w3.org/2000/svg">
<rect width="50" height="50" rx="25" fill="white"/>
<path d="M25 9.67188C27.2652 9.67188 29.1016 7.83554 29.1016 5.57031C29.1016 3.30508 27.2652 1.46875 25 1.46875C22.7348 1.46875 20.8984 3.30508 20.8984 5.57031C20.8984 7.83554 22.7348 9.67188 25 9.67188Z" fill="#493E2F"/>
<path d="M25 34.5518C33.7643 34.5518 40.8691 27.61 40.8691 19.0469C40.8691 10.4838 33.7643 3.54199 25 3.54199C16.2357 3.54199 9.13086 10.4838 9.13086 19.0469C9.13086 27.61 16.2357 34.5518 25 34.5518Z" fill="#5B412C"/>
<path d="M35.9085 44.0126C35.9085 50.0373 14.0913 50.0373 14.0913 44.0126C14.0913 37.988 18.9753 33.104 24.9999 33.104C31.0245 33.104 35.9085 37.988 35.9085 44.0126Z" fill="#0A717F"/>
<path d="M24.9998 33.104C19.6149 33.104 15.142 37.0059 14.2524 42.1363C16.129 47.0086 33.8705 47.0086 35.747 42.1363C34.8576 37.0059 30.3847 33.104 24.9998 33.104Z" fill="#19929B"/>
<path d="M25 38.9839C27.3866 38.9839 29.3213 37.0492 29.3213 34.6626C29.3213 32.276 27.3866 30.3413 25 30.3413C22.6134 30.3413 20.6787 32.276 20.6787 34.6626C20.6787 37.0492 22.6134 38.9839 25 38.9839Z" fill="#FFBF94"/>
<path d="M24.9998 30.3413C23.0728 30.3413 21.441 31.6029 20.8838 33.3451C21.441 35.0873 23.0729 36.349 24.9998 36.349C26.9269 36.349 28.5586 35.0873 29.1157 33.3451C28.5586 31.6029 26.9269 30.3413 24.9998 30.3413Z" fill="#ED9572"/>
<path d="M11.5411 26.6525C13.4912 26.6525 15.072 25.0717 15.072 23.1217C15.072 21.1716 13.4912 19.5908 11.5411 19.5908C9.59107 19.5908 8.01025 21.1716 8.01025 23.1217C8.01025 25.0717 9.59107 26.6525 11.5411 26.6525Z" fill="#FFBF94"/>
<path d="M11.5416 25.2823C9.82607 25.2823 8.39678 24.0586 8.07773 22.4365C8.03418 22.6582 8.01074 22.8871 8.01074 23.1217C8.01074 25.0717 9.5916 26.6524 11.5416 26.6524C13.4916 26.6524 15.0724 25.0716 15.0724 23.1217C15.0724 22.8872 15.0489 22.6582 15.0054 22.4365C14.6863 24.0586 13.257 25.2823 11.5416 25.2823Z" fill="#ED9572"/>
<path d="M38.4585 26.6523C40.4085 26.6523 41.9893 25.0716 41.9893 23.1216C41.9893 21.1716 40.4085 19.5908 38.4585 19.5908C36.5085 19.5908 34.9277 21.1716 34.9277 23.1216C34.9277 25.0716 36.5085 26.6523 38.4585 26.6523Z" fill="#FFBF94"/>
<path d="M38.4586 25.2823C36.7431 25.2823 35.3139 24.0586 34.9947 22.4365C34.9513 22.6582 34.9277 22.8871 34.9277 23.1217C34.9277 25.0717 36.5086 26.6524 38.4585 26.6524C40.4084 26.6524 41.9893 25.0716 41.9893 23.1217C41.9893 22.8872 41.9659 22.6582 41.9223 22.4365C41.6034 24.0586 40.1742 25.2823 38.4586 25.2823Z" fill="#ED9572"/>
<path d="M37.3691 17.8519C37.0931 11.2587 31.9795 5.99775 25.0028 5.99473C25.0019 5.99473 25.0008 5.99463 24.9999 5.99463C24.9988 5.99463 24.9979 5.99463 24.997 5.99463C18.0204 5.99756 12.9067 11.2587 12.6306 17.8519H12.6187V25.4404H12.6306C12.9067 32.0336 18.4415 35.1878 24.997 35.1896V35.1897C24.9979 35.1897 24.9989 35.1896 24.9999 35.1896C25.0009 35.1896 25.002 35.1897 25.0028 35.1897V35.1896C31.5583 35.1877 37.0932 32.0336 37.3691 25.4404H37.3812V17.8519H37.3691Z" fill="#FFBF94"/>
<path d="M38.0859 19.6328C38.0859 3.42183 25 5.86324 25 5.86324C25 5.86324 11.9141 3.42183 11.9141 19.6328L12.9477 21.9765V20.9148C12.9477 20.1821 13.2724 19.4869 13.8343 19.0166L25 9.67184L36.1657 19.0166C36.7276 19.4869 37.0522 20.182 37.0522 20.9148V21.9765L38.0859 19.6328Z" fill="#7C4E2E"/>
<path d="M16.5002 37.1558C16.4992 37.1571 16.4982 37.1582 16.4973 37.1595C16.3464 37.3467 16.2015 37.539 16.063 37.736C16.0628 37.7363 16.0626 37.7365 16.0625 37.7368C15.5761 38.4291 15.1681 39.1804 14.8515 39.978C14.8514 39.9783 14.8513 39.9786 14.8512 39.9789C14.7613 40.2052 14.6789 40.4353 14.6042 40.6687C14.6029 40.6724 14.6019 40.6761 14.6006 40.6799C14.5271 40.9104 14.4609 41.1441 14.4025 41.381C14.4011 41.387 14.3997 41.3929 14.3982 41.3988C14.3406 41.6344 14.2906 41.8728 14.2486 42.1141C14.248 42.1173 14.2474 42.1204 14.2468 42.1237C14.2468 42.1237 14.2469 42.1238 14.2469 42.124C14.1412 42.7335 14.0854 43.3602 14.0854 43.9999C14.0854 45.3097 15.1168 46.3344 16.7305 47.0747V44.3337V36.9053C16.652 36.9962 16.5756 37.0623 16.5002 37.1558Z" fill="#FFBF94"/>
<path d="M15.8511 46.6058V44.3335V38.0493C15.457 38.6536 15.1206 39.2987 14.851 39.9778C14.8509 39.9781 14.8508 39.9784 14.8507 39.9787C14.7608 40.205 14.6784 40.4351 14.6037 40.6685C14.6024 40.6722 14.6014 40.6759 14.6001 40.6797C14.5266 40.9102 14.4605 41.1439 14.4021 41.3808C14.4006 41.3868 14.3992 41.3927 14.3978 41.3986C14.3401 41.6342 14.2901 41.8727 14.2481 42.1139C14.2476 42.1171 14.2469 42.1202 14.2463 42.1235C14.2463 42.1235 14.2464 42.1236 14.2464 42.1238C14.1407 42.7333 14.085 43.36 14.085 43.9997C14.085 45.0525 14.7517 45.9209 15.8511 46.6058Z" fill="#FFBF94"/>
<path d="M35.7534 42.1495L35.7536 42.1492C35.7529 42.1456 35.7521 42.1422 35.7516 42.1386C35.7092 41.896 35.659 41.6562 35.6009 41.4193C35.599 41.4119 35.5973 41.4045 35.5953 41.397C35.5369 41.1611 35.471 40.9282 35.3976 40.6988C35.3951 40.691 35.3926 40.6832 35.39 40.6753C35.3163 40.4465 35.2351 40.2211 35.147 39.999C35.1437 39.9911 35.1407 39.9831 35.1374 39.9752C35.0932 39.8644 35.0471 39.7543 34.9993 39.6454C34.9979 39.6424 34.9965 39.6393 34.9951 39.6362C34.9485 39.5304 34.9002 39.4254 34.8504 39.3213C34.8469 39.3138 34.8434 39.3063 34.8397 39.2988C34.7891 39.1936 34.7367 39.0893 34.6829 38.9859C34.6784 38.9773 34.6738 38.9688 34.6692 38.9602C34.6175 38.8616 34.5644 38.764 34.5096 38.6673C34.506 38.6608 34.5025 38.6543 34.4989 38.6479C34.4423 38.5482 34.3841 38.4497 34.3245 38.3521C34.3168 38.3395 34.309 38.327 34.3014 38.3145C34.2439 38.2214 34.1855 38.1291 34.1255 38.0379C34.1226 38.0333 34.1195 38.0287 34.1166 38.0241C34.0545 37.9302 33.9909 37.8374 33.9261 37.7454C33.9153 37.7301 33.9042 37.7148 33.8934 37.6994C33.8295 37.6098 33.7645 37.5209 33.698 37.4333C33.6971 37.4319 33.6961 37.4307 33.6952 37.4295C33.6279 37.3409 33.5589 37.2536 33.489 37.1673C33.4753 37.1504 33.4616 37.1336 33.4478 37.1167C33.3777 37.0313 33.3069 36.9465 33.2344 36.8633V36.8634V44.3758V47.1166C34.8687 46.375 35.915 45.3446 35.915 44.0254C35.9149 43.3858 35.8591 42.7591 35.7534 42.1495Z" fill="#FFBF94"/>
<path d="M35.7536 42.1492C35.7529 42.1456 35.7521 42.1422 35.7516 42.1386C35.7092 41.896 35.659 41.6562 35.6009 41.4193C35.599 41.4119 35.5973 41.4045 35.5953 41.397C35.5369 41.1611 35.471 40.9282 35.3976 40.6988C35.3951 40.691 35.3926 40.6832 35.39 40.6753C35.3163 40.4465 35.2351 40.2211 35.147 39.999C35.1437 39.9911 35.1407 39.9831 35.1374 39.9752C35.0932 39.8644 35.0471 39.7543 34.9993 39.6454C34.9979 39.6424 34.9965 39.6393 34.9951 39.6362C34.9485 39.5304 34.9002 39.4254 34.8504 39.3213C34.8469 39.3138 34.8434 39.3063 34.8397 39.2988C34.7891 39.1936 34.7367 39.0893 34.6829 38.9859C34.6784 38.9773 34.6738 38.9688 34.6692 38.9602C34.6175 38.8616 34.5644 38.764 34.5096 38.6673C34.506 38.6608 34.5025 38.6543 34.4989 38.6479C34.4423 38.5482 34.3841 38.4497 34.3245 38.3521C34.3168 38.3395 34.309 38.327 34.3014 38.3145C34.2718 38.2666 34.2411 38.2196 34.2109 38.1724V46.593C35.2737 45.9144 35.915 45.0585 35.915 44.0257C35.915 43.3859 35.8593 42.7592 35.7536 42.1497C35.7534 42.1494 35.7536 42.1492 35.7536 42.1492Z" fill="#FFBF94"/>
<path d="M16.5495 36.8205C15.7811 36.8205 15.1582 37.4434 15.1582 38.2118C15.1582 38.6844 15.3943 39.1012 15.7545 39.3528C15.6291 39.5618 15.5557 39.8054 15.5557 40.0669C15.5557 40.5598 15.8127 40.9918 16.1993 41.239C16.1265 41.4079 16.0856 41.5938 16.0856 41.7895C16.0856 42.2903 16.3512 42.7279 16.7481 42.973V36.8206C16.6831 36.8112 16.6172 36.8205 16.5495 36.8205Z" fill="white"/>
<path d="M33.4507 36.8205C34.219 36.8205 34.842 37.4434 34.842 38.2118C34.842 38.6844 34.6059 39.1012 34.2456 39.3528C34.3711 39.5618 34.4445 39.8054 34.4445 40.0669C34.4445 40.5598 34.1874 40.9918 33.8008 41.239C33.8736 41.4079 33.9145 41.5938 33.9145 41.7895C33.9145 42.2903 33.6489 42.7279 33.252 42.973V36.8206C33.3171 36.8112 33.3831 36.8205 33.4507 36.8205Z" fill="white"/>
<path d="M17.012 29.1866C18.659 29.1866 19.9942 27.8514 19.9942 26.2044C19.9942 24.5574 18.659 23.2222 17.012 23.2222C15.365 23.2222 14.0298 24.5574 14.0298 26.2044C14.0298 27.8514 15.365 29.1866 17.012 29.1866Z" fill="#F97A7A"/>
<path d="M32.9881 29.1866C34.6351 29.1866 35.9703 27.8514 35.9703 26.2044C35.9703 24.5574 34.6351 23.2222 32.9881 23.2222C31.3411 23.2222 30.0059 24.5574 30.0059 26.2044C30.0059 27.8514 31.3411 29.1866 32.9881 29.1866Z" fill="#F97A7A"/>
<path d="M20.3442 22.6899C21.2854 22.6899 22.0483 21.927 22.0483 20.9858C22.0483 20.0447 21.2854 19.2817 20.3442 19.2817C19.4031 19.2817 18.6401 20.0447 18.6401 20.9858C18.6401 21.927 19.4031 22.6899 20.3442 22.6899Z" fill="#493E2F"/>
<path d="M29.6313 22.6899C30.5725 22.6899 31.3354 21.927 31.3354 20.9858C31.3354 20.0447 30.5725 19.2817 29.6313 19.2817C28.6902 19.2817 27.9272 20.0447 27.9272 20.9858C27.9272 21.927 28.6902 22.6899 29.6313 22.6899Z" fill="#493E2F"/>
<path d="M25.0534 28.5364C24.167 28.5364 23.2806 28.199 22.6057 27.5242C22.3769 27.2953 22.3769 26.9243 22.6057 26.6955C22.8345 26.4667 23.2056 26.4667 23.4343 26.6955C24.3273 27.5885 25.7798 27.5883 26.6726 26.6955C26.9014 26.4667 27.2725 26.4667 27.5012 26.6955C27.7301 26.9244 27.7301 27.2954 27.5012 27.5242C26.8264 28.199 25.9399 28.5364 25.0534 28.5364Z" fill="#F97A7A"/>
</svg>
