<svg width="50" height="50" viewBox="0 0 50 50" fill="none" xmlns="http://www.w3.org/2000/svg">
<rect width="50" height="50" rx="25" fill="white"/>
<path d="M40.7867 19.1394C41.6918 18.5114 42.285 17.4654 42.285 16.2804C42.285 15.3537 41.9218 14.5123 41.3311 13.8889C41.5376 13.3736 41.6524 12.8116 41.6524 12.2226C41.6524 9.74863 39.6471 7.74316 37.1732 7.74316C37.1427 7.74316 37.1126 7.74492 37.0822 7.74541C36.7986 5.54443 34.9191 3.84336 32.6409 3.84336C32.2589 3.84336 31.8879 3.8915 31.5337 3.98164C30.5777 2.32461 28.7892 1.2085 26.7388 1.2085C26.1309 1.2085 25.5467 1.30791 24.9996 1.48896C24.4525 1.30791 23.8684 1.2085 23.2605 1.2085C21.2101 1.2085 19.4215 2.32461 18.4655 3.98164C18.1114 3.8916 17.7404 3.84336 17.3583 3.84336C15.0802 3.84336 13.2007 5.54443 12.9172 7.74541C12.8868 7.74482 12.8567 7.74316 12.8262 7.74316C10.3522 7.74316 8.34678 9.74863 8.34678 12.2226C8.34678 12.8117 8.46162 13.3737 8.66826 13.8889C8.07744 14.5123 7.71436 15.3537 7.71436 16.2804C7.71436 17.4654 8.30742 18.5114 9.2125 19.1394C9.10859 19.209 9.00957 19.2892 8.91777 19.381C8.15635 20.1425 8.15635 21.377 8.91777 22.1385C9.54629 22.7669 10.4963 22.8752 11.2373 22.4663C12.4449 28.9498 18.1312 33.8583 24.9647 33.8583C31.8111 33.8583 37.5063 28.9312 38.6991 22.4294C39.4485 22.8803 40.4348 22.7847 41.0811 22.1384C41.8427 21.3769 41.8427 20.1424 41.0811 19.3809C40.9897 19.2892 40.8907 19.209 40.7867 19.1394Z" fill="#96914B"/>
<path d="M35.9087 44.2729C35.9087 50.2976 14.0913 50.2976 14.0913 44.2729C14.0913 38.2482 18.9753 33.3643 24.9999 33.3643C31.0247 33.3643 35.9087 38.2482 35.9087 44.2729Z" fill="#D1375F"/>
<path d="M25.0002 33.3643C19.6154 33.3643 15.1424 37.2661 14.2529 42.3966C16.1295 47.2688 33.871 47.2688 35.7476 42.3966C34.8581 37.2661 30.3851 33.3643 25.0002 33.3643Z" fill="#EF5B7B"/>
<path d="M25.0001 26.9128C26.9501 26.9128 28.531 25.332 28.531 23.3819C28.531 21.4319 26.9501 19.8511 25.0001 19.8511C23.0501 19.8511 21.4692 21.4319 21.4692 23.3819C21.4692 25.332 23.0501 26.9128 25.0001 26.9128Z" fill="#FFF4EA"/>
<path d="M25 39.2441C27.3866 39.2441 29.3213 37.3094 29.3213 34.9229C29.3213 32.5363 27.3866 30.6016 25 30.6016C22.6134 30.6016 20.6787 32.5363 20.6787 34.9229C20.6787 37.3094 22.6134 39.2441 25 39.2441Z" fill="#FFBF94"/>
<path d="M24.9998 30.6016C23.0729 30.6016 21.441 31.8632 20.8838 33.6054C21.441 35.3476 23.0729 36.6093 24.9998 36.6093C26.9269 36.6093 28.5586 35.3476 29.1159 33.6054C28.5585 31.8632 26.9268 30.6016 24.9998 30.6016Z" fill="#ED9572"/>
<path d="M25.0001 26.9128C26.9501 26.9128 28.531 25.332 28.531 23.3819C28.531 21.4319 26.9501 19.8511 25.0001 19.8511C23.0501 19.8511 21.4692 21.4319 21.4692 23.3819C21.4692 25.332 23.0501 26.9128 25.0001 26.9128Z" fill="#FFF4EA"/>
<path d="M25.9578 39.6139C26.1353 39.798 26.3841 39.913 26.6601 39.913C27.1994 39.913 27.6366 39.4757 27.6366 38.9364C27.6366 38.8894 27.6322 38.8434 27.6258 38.798C27.7719 38.8854 27.9422 38.9364 28.1249 38.9364C28.6643 38.9364 29.1015 38.4991 29.1015 37.9599C29.1015 37.7772 29.0504 37.6068 28.9632 37.4606C29.0084 37.467 29.0544 37.4716 29.1015 37.4716C29.6408 37.4716 30.078 37.0343 30.078 36.495C30.078 36.2152 29.9598 35.9638 29.7713 35.7856C30.0705 35.6188 30.2733 35.2994 30.2733 34.9325C30.2733 34.8606 30.2651 34.7908 30.2503 34.7232C29.9367 34.5497 29.6136 34.391 29.2821 34.2483C29.317 34.4683 29.3367 34.6933 29.3367 34.923C29.3367 37.3096 27.402 39.2443 25.0154 39.2443C22.6289 39.2443 20.6941 37.3096 20.6941 34.923C20.6941 34.6807 20.7152 34.4433 20.7539 34.2119C20.4126 34.3553 20.0803 34.5156 19.7576 34.6918C19.738 34.7688 19.7266 34.8492 19.7266 34.9325C19.7266 35.2995 19.9292 35.6188 20.2285 35.7856C20.04 35.9637 19.9219 36.2151 19.9219 36.495C19.9219 37.0343 20.3591 37.4716 20.8984 37.4716C20.9455 37.4716 20.9915 37.467 21.0368 37.4606C20.9495 37.6068 20.8984 37.7772 20.8984 37.9599C20.8984 38.4991 21.3356 38.9364 21.875 38.9364C22.0576 38.9364 22.2279 38.8854 22.3741 38.798C22.3677 38.8434 22.3633 38.8894 22.3633 38.9364C22.3633 39.4757 22.8005 39.913 23.3398 39.913C23.6158 39.913 23.8646 39.798 24.0421 39.6139C24.1303 40.0627 24.5254 40.4013 24.9999 40.4013C25.4744 40.4012 25.8696 40.0626 25.9578 39.6139Z" fill="white"/>
<path d="M11.5411 26.9128C13.4912 26.9128 15.072 25.332 15.072 23.3819C15.072 21.4319 13.4912 19.8511 11.5411 19.8511C9.59107 19.8511 8.01025 21.4319 8.01025 23.3819C8.01025 25.332 9.59107 26.9128 11.5411 26.9128Z" fill="#FFBF94"/>
<path d="M11.5415 25.5426C9.82598 25.5426 8.39668 24.3188 8.07773 22.6968C8.03408 22.9185 8.01074 23.1474 8.01074 23.3819C8.01074 25.3319 9.5916 26.9127 11.5415 26.9127C13.4915 26.9127 15.0724 25.3318 15.0724 23.3819C15.0724 23.1475 15.0489 22.9185 15.0054 22.6968C14.6863 24.3188 13.257 25.5426 11.5415 25.5426Z" fill="#ED9572"/>
<path d="M38.4585 26.9126C40.4085 26.9126 41.9893 25.3318 41.9893 23.3818C41.9893 21.4319 40.4085 19.8511 38.4585 19.8511C36.5085 19.8511 34.9277 21.4319 34.9277 23.3818C34.9277 25.3318 36.5085 26.9126 38.4585 26.9126Z" fill="#FFBF94"/>
<path d="M38.4585 25.5426C36.7431 25.5426 35.3137 24.3188 34.9947 22.6968C34.9511 22.9185 34.9277 23.1474 34.9277 23.3819C34.9277 25.3319 36.5084 26.9127 38.4584 26.9127C40.4084 26.9127 41.9893 25.3318 41.9893 23.3819C41.9893 23.1475 41.9658 22.9185 41.9221 22.6968C41.6034 24.3188 40.1742 25.5426 38.4585 25.5426Z" fill="#ED9572"/>
<path d="M37.3691 18.1121C37.093 11.5189 31.9794 6.25791 25.0027 6.25498C25.0017 6.25498 25.0007 6.25488 24.9998 6.25488C24.9989 6.25488 24.9979 6.25488 24.997 6.25488C18.0203 6.25781 12.9066 11.5189 12.6306 18.1121H12.6187V25.7007H12.6306C12.9067 32.2938 18.4414 35.448 24.997 35.4499V35.45C24.9979 35.45 24.9989 35.4499 24.9998 35.4499C25.0007 35.4499 25.0018 35.45 25.0027 35.45V35.4499C31.5582 35.4479 37.093 32.2938 37.3691 25.7007H37.381V18.1121H37.3691Z" fill="#FFF4EA"/>
<path d="M37.3691 18.1121C37.093 11.5189 31.9794 6.25791 25.0027 6.25498C25.0017 6.25498 25.0007 6.25488 24.9998 6.25488C24.9989 6.25488 24.9979 6.25488 24.997 6.25488C18.0203 6.25781 12.9066 11.5189 12.6306 18.1121H12.6187V25.7007H12.6306C12.9067 32.2938 18.4414 35.448 24.997 35.4499V35.45C24.9979 35.45 24.9989 35.4499 24.9998 35.4499C25.0007 35.4499 25.0018 35.45 25.0027 35.45V35.4499C31.5582 35.4479 37.093 32.2938 37.3691 25.7007H37.381V18.1121H37.3691Z" fill="#FFBF94"/>
<path d="M37.3314 23.2207C35.6751 23.2207 34.3275 21.8732 34.3275 20.2169C34.3275 19.8974 34.3775 19.5857 34.4727 19.2913C33.3218 18.7652 32.4735 17.688 32.2678 16.3991C31.974 16.4496 31.6757 16.4753 31.3763 16.4753C29.0175 16.4753 27.0018 14.9172 26.3382 12.7537C26.1573 12.7755 25.9746 12.7864 25.7902 12.7864H24.2094C24.025 12.7864 23.8423 12.7755 23.6615 12.7537C22.9979 14.9173 20.9822 16.4753 18.6233 16.4753C18.324 16.4753 18.0256 16.4496 17.732 16.3991C17.5263 17.688 16.6779 18.7652 15.5271 19.2913C15.6222 19.5857 15.6722 19.8974 15.6722 20.2169C15.6722 21.8731 14.3247 23.2207 12.6684 23.2207C11.012 23.2207 9.66455 21.8732 9.66455 20.2169C9.66455 19.3029 10.0801 18.4792 10.732 17.9267C10.3177 17.3064 10.0861 16.5676 10.0861 15.7901C10.0861 13.846 11.5357 12.2341 13.4108 11.9785C13.3729 11.7229 13.3535 11.4643 13.3535 11.2054C13.3535 8.29951 15.7176 5.93555 18.6233 5.93555C19.1553 5.93555 19.6813 6.01572 20.1839 6.17148C20.9464 4.7002 22.484 3.72217 24.2094 3.72217H25.7902C27.5158 3.72217 29.0533 4.7001 29.8159 6.17148C30.3185 6.01582 30.8443 5.93555 31.3764 5.93555C34.2822 5.93555 36.6464 8.29961 36.6464 11.2054C36.6464 11.4643 36.627 11.7229 36.589 11.9785C38.4641 12.2341 39.9137 13.8461 39.9137 15.7901C39.9137 16.5676 39.6821 17.3064 39.2677 17.9267C39.9198 18.4791 40.3353 19.3029 40.3353 20.2169C40.3352 21.8731 38.9876 23.2207 37.3314 23.2207Z" fill="#B2AF79"/>
<path d="M16.5061 37.4248C16.5051 37.426 16.504 37.4272 16.5031 37.4284C16.3522 37.6157 16.2073 37.808 16.0688 38.005C16.0687 38.0053 16.0685 38.0056 16.0684 38.0058C15.5819 38.6981 15.1739 39.4494 14.8573 40.2471C14.8572 40.2473 14.8571 40.2476 14.857 40.2479C14.7673 40.4741 14.6849 40.7042 14.6101 40.9376C14.6089 40.9414 14.6077 40.9452 14.6064 40.949C14.5329 41.1794 14.4668 41.4132 14.4084 41.65C14.4069 41.6561 14.4056 41.6619 14.4041 41.6679C14.3465 41.9034 14.2965 42.1419 14.2545 42.3832C14.2539 42.3864 14.2532 42.3895 14.2526 42.3928L14.2527 42.3931C14.147 43.0025 14.0913 43.6293 14.0913 44.269C14.0913 45.5787 15.1227 46.6034 16.7363 47.3438V44.6028V37.1488V37.1479C16.6579 37.2388 16.5814 37.3313 16.5061 37.4248Z" fill="#FFBF94"/>
<path d="M35.7472 42.4012C35.7472 42.401 35.7474 42.401 35.7474 42.4008C35.7468 42.3977 35.746 42.3945 35.7454 42.3912C35.703 42.1481 35.6527 41.9079 35.5945 41.6706C35.5932 41.6649 35.5917 41.6594 35.5903 41.6536C35.5315 41.4155 35.465 41.1808 35.391 40.9492C35.3895 40.9448 35.3882 40.9403 35.3866 40.9359C35.3116 40.7027 35.2291 40.4729 35.1393 40.2467C35.1383 40.2446 35.1375 40.2423 35.1366 40.2402C34.9091 39.669 34.6346 39.1218 34.3178 38.6029C34.3164 38.6005 34.3149 38.598 34.3134 38.5957C34.1883 38.3908 34.0564 38.1906 33.9184 37.995C33.9155 37.9909 33.9126 37.9868 33.9096 37.9827C33.7727 37.7893 33.6296 37.6004 33.4806 37.4164C33.4762 37.4109 33.4718 37.4056 33.4672 37.4C33.3928 37.3085 33.3175 37.2179 33.2402 37.1289V37.1296V44.6217V47.3626C34.8674 46.6215 35.9086 45.5931 35.9086 44.277C35.9087 43.6374 35.8528 43.0107 35.7472 42.4012Z" fill="#FFBF94"/>
<path d="M16.6858 29.4474C18.3329 29.4474 19.6681 28.1122 19.6681 26.4651C19.6681 24.8181 18.3329 23.4829 16.6858 23.4829C15.0388 23.4829 13.7036 24.8181 13.7036 26.4651C13.7036 28.1122 15.0388 29.4474 16.6858 29.4474Z" fill="#F97A7A"/>
<path d="M32.6619 29.4474C34.309 29.4474 35.6441 28.1122 35.6441 26.4651C35.6441 24.8181 34.309 23.4829 32.6619 23.4829C31.0149 23.4829 29.6797 24.8181 29.6797 26.4651C29.6797 28.1122 31.0149 29.4474 32.6619 29.4474Z" fill="#F97A7A"/>
<path d="M20.0288 22.9502C20.97 22.9502 21.7329 22.1872 21.7329 21.2461C21.7329 20.3049 20.97 19.542 20.0288 19.542C19.0877 19.542 18.3247 20.3049 18.3247 21.2461C18.3247 22.1872 19.0877 22.9502 20.0288 22.9502Z" fill="#493E2F"/>
<path d="M29.3159 22.9502C30.2571 22.9502 31.02 22.1872 31.02 21.2461C31.02 20.3049 30.2571 19.542 29.3159 19.542C28.3748 19.542 27.6118 20.3049 27.6118 21.2461C27.6118 22.1872 28.3748 22.9502 29.3159 22.9502Z" fill="#493E2F"/>
<path d="M24.7273 28.7966C23.8408 28.7966 22.9544 28.4592 22.2795 27.7844C22.0507 27.5555 22.0507 27.1845 22.2795 26.9557C22.5082 26.727 22.8793 26.727 23.1081 26.9557C24.0011 27.8488 25.4536 27.8486 26.3465 26.9557C26.5752 26.727 26.9464 26.727 27.175 26.9557C27.4039 27.1846 27.4039 27.5556 27.175 27.7844C26.5001 28.4592 25.6136 28.7966 24.7273 28.7966Z" fill="#F97A7A"/>
</svg>
