<svg width="50" height="50" viewBox="0 0 50 50" fill="none" xmlns="http://www.w3.org/2000/svg">
<rect width="50" height="50" rx="25" fill="white"/>
<path d="M37.0714 19.4836C39.4831 19.4836 41.4382 17.5285 41.4382 15.1168C41.4382 12.7051 39.4831 10.75 37.0714 10.75C34.6597 10.75 32.7046 12.7051 32.7046 15.1168C32.7046 17.5285 34.6597 19.4836 37.0714 19.4836Z" fill="#B2AF79"/>
<path d="M12.1695 19.4836C14.5812 19.4836 16.5363 17.5285 16.5363 15.1168C16.5363 12.7051 14.5812 10.75 12.1695 10.75C9.75782 10.75 7.80273 12.7051 7.80273 15.1168C7.80273 17.5285 9.75782 19.4836 12.1695 19.4836Z" fill="#B2AF79"/>
<path d="M35.6438 41.9264C35.6438 48.0147 13.5967 48.0147 13.5967 41.9264C13.5967 35.8383 18.5321 30.9028 24.6203 30.9028C30.7084 30.9028 35.6438 35.8383 35.6438 41.9264Z" fill="#E89C21"/>
<path d="M24.6204 30.9028C19.1787 30.9028 14.6586 34.8458 13.7598 40.0305C15.6562 44.9539 33.5846 44.9539 35.481 40.0305C34.5821 34.8458 30.062 30.9028 24.6204 30.9028Z" fill="#FFC866"/>
<path d="M11.4279 24.3832C13.3985 24.3832 14.996 22.7857 14.996 20.8151C14.996 18.8445 13.3985 17.2471 11.4279 17.2471C9.45734 17.2471 7.85986 18.8445 7.85986 20.8151C7.85986 22.7857 9.45734 24.3832 11.4279 24.3832Z" fill="#FFF4EA"/>
<path d="M24.6203 36.8446C27.0321 36.8446 28.9872 34.8895 28.9872 32.4777C28.9872 30.066 27.0321 28.1108 24.6203 28.1108C22.2085 28.1108 20.2534 30.066 20.2534 32.4777C20.2534 34.8895 22.2085 36.8446 24.6203 36.8446Z" fill="#FFBF94"/>
<path d="M24.6204 28.1108C22.673 28.1108 21.024 29.3859 20.4609 31.1464C21.024 32.9068 22.6729 34.1818 24.6204 34.1818C26.5677 34.1818 28.2167 32.9068 28.7798 31.1464C28.2167 29.3859 26.5678 28.1108 24.6204 28.1108Z" fill="#ED9572"/>
<path d="M38.6291 24.3832C40.5997 24.3832 42.1972 22.7857 42.1972 20.8151C42.1972 18.8445 40.5997 17.2471 38.6291 17.2471C36.6585 17.2471 35.061 18.8445 35.061 20.8151C35.061 22.7857 36.6585 24.3832 38.6291 24.3832Z" fill="#FFF4EA"/>
<path d="M23.941 37.325H19.9036C19.5153 37.325 19.2007 37.0102 19.2007 36.6221V32.5846C19.2007 31.9585 19.9578 31.6449 20.4006 32.0876L24.4381 36.1251C24.8809 36.5679 24.5672 37.325 23.941 37.325Z" fill="#E89C21"/>
<path d="M19.9037 36.3484H23.9411C24.1502 36.3484 24.3231 36.263 24.446 36.1342C24.4432 36.1312 24.441 36.128 24.4382 36.1251L20.4006 32.0876C19.9578 31.6449 19.2007 31.9585 19.2007 32.5846V35.6456C19.2007 36.0337 19.5154 36.3484 19.9037 36.3484Z" fill="white"/>
<path d="M25.3 37.325H29.3375C29.7257 37.325 30.0404 37.0102 30.0404 36.6221V32.5846C30.0404 31.9585 29.2832 31.6449 28.8405 32.0876L24.803 36.1251C24.3602 36.5679 24.6739 37.325 25.3 37.325Z" fill="#E89C21"/>
<path d="M29.3378 36.3484H25.3003C25.0912 36.3484 24.9183 36.263 24.7954 36.1342C24.7982 36.1312 24.8004 36.128 24.8032 36.1251L28.8407 32.0876C29.2835 31.6449 30.0406 31.9585 30.0406 32.5846V35.6456C30.0406 36.0337 29.726 36.3484 29.3378 36.3484Z" fill="white"/>
<path d="M11.4279 24.3832C13.3985 24.3832 14.996 22.7857 14.996 20.8151C14.996 18.8445 13.3985 17.2471 11.4279 17.2471C9.45734 17.2471 7.85986 18.8445 7.85986 20.8151C7.85986 22.7857 9.45734 24.3832 11.4279 24.3832Z" fill="#FFBF94"/>
<path d="M11.4278 22.9983C9.69424 22.9983 8.2499 21.7617 7.92754 20.1226C7.8835 20.3466 7.85986 20.5779 7.85986 20.8148C7.85986 22.7854 9.45732 24.3829 11.4278 24.3829C13.3984 24.3829 14.9959 22.7854 14.9959 20.8148C14.9959 20.5779 14.9723 20.3466 14.9282 20.1226C14.6058 21.7618 13.1615 22.9983 11.4278 22.9983Z" fill="#ED9572"/>
<path d="M38.6291 24.3832C40.5997 24.3832 42.1972 22.7857 42.1972 20.8151C42.1972 18.8445 40.5997 17.2471 38.6291 17.2471C36.6585 17.2471 35.061 18.8445 35.061 20.8151C35.061 22.7857 36.6585 24.3832 38.6291 24.3832Z" fill="#FFBF94"/>
<path d="M38.629 22.9983C36.8954 22.9983 35.4512 21.7617 35.1287 20.1226C35.0847 20.3466 35.061 20.5779 35.061 20.8148C35.061 22.7854 36.6585 24.3829 38.629 24.3829C40.5997 24.3829 42.1971 22.7854 42.1971 20.8148C42.1971 20.5779 42.1734 20.3466 42.1294 20.1226C41.8069 21.7618 40.3626 22.9983 38.629 22.9983Z" fill="#ED9572"/>
<path d="M37.1203 15.4895C36.8413 8.82676 31.6738 3.51035 24.6236 3.50742L24.6235 3.50732C24.6226 3.50732 24.6216 3.50732 24.6207 3.50732C24.6196 3.50732 24.6187 3.50732 24.6177 3.50732C17.5676 3.51025 12.4001 8.82676 12.121 15.4895H12.1089V23.158H12.121C12.4 29.8205 17.9932 33.0081 24.6177 33.01C24.6187 33.01 24.6197 33.01 24.6207 33.01C24.6217 33.01 24.6227 33.01 24.6235 33.01C31.248 33.008 36.8412 29.8205 37.1203 23.158H37.1324V15.4895H37.1203Z" fill="#FFBF94"/>
<path d="M16.6321 27.1524C18.2792 27.1524 19.6144 25.8173 19.6144 24.1702C19.6144 22.5232 18.2792 21.188 16.6321 21.188C14.9851 21.188 13.6499 22.5232 13.6499 24.1702C13.6499 25.8173 14.9851 27.1524 16.6321 27.1524Z" fill="#F97A7A"/>
<path d="M32.6087 27.1524C34.2557 27.1524 35.5909 25.8173 35.5909 24.1702C35.5909 22.5232 34.2557 21.188 32.6087 21.188C30.9617 21.188 29.6265 22.5232 29.6265 24.1702C29.6265 25.8173 30.9617 27.1524 32.6087 27.1524Z" fill="#F97A7A"/>
<path d="M19.9756 20.6553C20.9167 20.6553 21.6797 19.8923 21.6797 18.9512C21.6797 18.01 20.9167 17.2471 19.9756 17.2471C19.0344 17.2471 18.2715 18.01 18.2715 18.9512C18.2715 19.8923 19.0344 20.6553 19.9756 20.6553Z" fill="#493E2F"/>
<path d="M29.2627 20.6553C30.2038 20.6553 30.9668 19.8923 30.9668 18.9512C30.9668 18.01 30.2038 17.2471 29.2627 17.2471C28.3215 17.2471 27.5586 18.01 27.5586 18.9512C27.5586 19.8923 28.3215 20.6553 29.2627 20.6553Z" fill="#493E2F"/>
<path d="M24.6736 26.5018C23.7871 26.5018 22.9006 26.1644 22.2258 25.4896C21.997 25.2607 21.997 24.8897 22.2258 24.6609C22.4546 24.4321 22.8257 24.4321 23.0544 24.6609C23.9474 25.5538 25.4 25.5536 26.2927 24.6609C26.5215 24.4321 26.8926 24.4321 27.1212 24.6609C27.3501 24.8897 27.3501 25.2607 27.1212 25.4896C26.4464 26.1644 25.56 26.5018 24.6736 26.5018Z" fill="#F97A7A"/>
</svg>
