<svg width="50" height="50" viewBox="0 0 50 50" fill="none" xmlns="http://www.w3.org/2000/svg">
<rect width="50" height="50" rx="25" fill="white"/>
<path d="M42.6759 33.8159C42.6759 31.7454 40.7228 31.7454 40.7228 29.6749C40.7228 27.6045 42.6759 27.6045 42.6759 25.5341C42.6759 23.4639 40.7228 23.4639 40.7228 21.3938C40.7228 19.3234 42.6759 19.3234 42.6759 17.2532C42.6759 15.1831 40.8204 13.5524 40.8204 13.5524C40.8204 10.0387 38.8087 6.97227 35.8804 5.44717C33.1485 3.41953 29.2844 2.15479 25.0001 2.15479C20.7647 2.15479 16.9402 3.39102 14.214 5.37822C11.2347 6.88623 9.17981 9.98037 9.17981 13.5317C9.17981 13.5317 7.32434 15.1624 7.32434 17.2325C7.32434 19.3027 9.27747 19.3027 9.27747 21.373C9.27747 23.4432 7.32434 23.4432 7.32434 25.5134C7.32434 27.5838 9.27747 27.5838 9.27747 29.6542C9.27747 31.7247 7.32434 31.7247 7.32434 33.7952C7.32434 33.7952 7.27551 36.2854 9.13098 36.7737C9.13098 36.7737 11.5724 37.4573 13.4279 37.9456L16.4632 38.2668H22.5587C22.5587 38.2803 22.5587 38.2874 22.5587 38.2874H33.537L36.5724 37.9662C38.4279 37.4779 40.8693 36.7943 40.8693 36.7943C42.7247 36.3062 42.6759 33.8159 42.6759 33.8159Z" fill="#5B412C"/>
<path d="M36.0237 43.2794C36.0237 49.3677 13.9766 49.3677 13.9766 43.2794C13.9766 37.1913 18.912 32.2559 25.0002 32.2559C31.0884 32.2559 36.0237 37.1913 36.0237 43.2794Z" fill="#D1375F"/>
<path d="M25.0002 32.2559C19.5586 32.2559 15.0385 36.1988 14.1396 41.3835C16.0359 46.3069 33.9644 46.3069 35.8607 41.3835C34.9619 36.1988 30.4418 32.2559 25.0002 32.2559Z" fill="#EF5B7B"/>
<path d="M25.0002 39.1742C28.31 39.1742 30.9931 37.2191 30.9931 34.8073C30.9931 32.3956 28.31 30.4404 25.0002 30.4404C21.6904 30.4404 19.0073 32.3956 19.0073 34.8073C19.0073 37.2191 21.6904 39.1742 25.0002 39.1742Z" fill="#FFBF94"/>
<path d="M25.0002 30.4404C22.3277 30.4404 20.0647 31.7155 19.292 33.476C20.0647 35.2364 22.3277 36.5114 25.0002 36.5114C27.6727 36.5114 29.9356 35.2364 30.7084 33.476C29.9356 31.7155 27.6727 30.4404 25.0002 30.4404Z" fill="#ED9572"/>
<path d="M11.3996 25.7362C13.3702 25.7362 14.9677 24.1388 14.9677 22.1682C14.9677 20.1976 13.3702 18.6001 11.3996 18.6001C9.42902 18.6001 7.83154 20.1976 7.83154 22.1682C7.83154 24.1388 9.42902 25.7362 11.3996 25.7362Z" fill="#FFBF94"/>
<path d="M11.3995 24.3514C9.66592 24.3514 8.22158 23.1147 7.89922 21.4756C7.85518 21.6996 7.83154 21.931 7.83154 22.168C7.83154 24.1385 9.429 25.7359 11.3995 25.7359C13.3701 25.7359 14.9676 24.1385 14.9676 22.168C14.9676 21.931 14.9439 21.6996 14.8999 21.4756C14.5775 23.1147 13.1332 24.3514 11.3995 24.3514Z" fill="#ED9572"/>
<path d="M38.6003 25.7362C40.5709 25.7362 42.1684 24.1388 42.1684 22.1682C42.1684 20.1976 40.5709 18.6001 38.6003 18.6001C36.6297 18.6001 35.0322 20.1976 35.0322 22.1682C35.0322 24.1388 36.6297 25.7362 38.6003 25.7362Z" fill="#FFBF94"/>
<path d="M38.6007 24.3514C36.8671 24.3514 35.4228 23.1147 35.1004 21.4756C35.0563 21.6996 35.0327 21.931 35.0327 22.168C35.0327 24.1385 36.6301 25.7359 38.6007 25.7359C40.5713 25.7359 42.1687 24.1385 42.1687 22.168C42.1687 21.931 42.1451 21.6996 42.1011 21.4756C41.7786 23.1147 40.3343 24.3514 38.6007 24.3514Z" fill="#ED9572"/>
<path d="M37.4997 16.9402C37.2207 10.2775 32.0531 4.96113 25.0029 4.95811C25.002 4.95811 25.0009 4.95801 25 4.95801C24.9991 4.95801 24.9979 4.95801 24.9971 4.95801C17.947 4.96094 12.7794 10.2775 12.5003 16.9401H12.4883V24.6087H12.5003C12.7793 31.2712 18.3725 34.4587 24.9971 34.4606C24.998 34.4606 24.9991 34.4606 25 34.4606C25.0009 34.4606 25.0021 34.4606 25.0029 34.4606C31.6275 34.4587 37.2206 31.2712 37.4997 24.6087H37.5117V16.9401L37.4997 16.9402Z" fill="#FFBF94"/>
<path d="M25.0217 4.59611L25.0002 4.60295L24.9786 4.59611C11.318 2.46066 11.7683 18.5474 11.7683 18.5474C11.7683 18.5474 13.0487 19.0322 13.0861 19.0559C14.0222 19.6517 16.254 17.9596 17.7059 16.2023C19.1578 14.4447 17.7398 13.3912 19.1918 11.6338C20.6438 9.87609 22.0619 10.9296 23.514 9.1719C24.3562 8.15236 23.1447 5.86574 25.0002 6.54934C26.8556 5.86574 25.6441 8.15236 26.4864 9.1719C27.9384 10.9296 29.3566 9.87609 30.8087 11.6338C32.2606 13.3912 30.8425 14.4447 32.2945 16.2023C33.7464 17.9596 35.9781 19.6516 36.9143 19.0559C36.9517 19.0322 38.2321 18.5474 38.2321 18.5474C38.2321 18.5474 38.6823 2.46066 25.0217 4.59611Z" fill="#7C4E2E"/>
<path d="M25.4612 43.3531C25.353 43.1757 25.163 43.0686 24.9508 43.0724C24.743 43.076 24.5527 43.1894 24.4505 43.3705L23.6644 44.7647C23.565 44.9411 23.5636 45.1561 23.6607 45.3337L24.4468 46.7714C24.5472 46.955 24.7379 47.0711 24.947 47.0761C24.9517 47.0762 24.9564 47.0763 24.9611 47.0763C25.165 47.0763 25.3547 46.97 25.4612 46.7954L26.3251 45.3794C26.4394 45.192 26.4394 44.9564 26.3251 44.7691L25.4612 43.3531Z" fill="white"/>
<path d="M21.7503 42.8652C21.6437 42.6906 21.4542 42.5845 21.2501 42.5845C21.2467 42.5845 21.2434 42.5845 21.2399 42.5845C21.0321 42.5881 20.8418 42.7016 20.7396 42.8826L19.9535 44.2769C19.8541 44.4532 19.8527 44.6683 19.9498 44.8458L20.7359 46.2835C20.8363 46.4671 21.0269 46.5832 21.2361 46.5882C21.2408 46.5883 21.2455 46.5884 21.2502 46.5884C21.4541 46.5884 21.6437 46.4821 21.7503 46.3075L22.6141 44.8915C22.7285 44.7041 22.7285 44.4686 22.6141 44.2812L21.7503 42.8652Z" fill="white"/>
<path d="M30.036 44.2809L29.1721 42.8649C29.0639 42.6874 28.873 42.5797 28.6618 42.5841C28.454 42.5877 28.2636 42.7012 28.1615 42.8823L27.3754 44.2765C27.2759 44.4529 27.2746 44.6679 27.3716 44.8454L28.1578 46.2831C28.2582 46.4667 28.4488 46.5828 28.658 46.5878C28.6627 46.5879 28.6673 46.588 28.672 46.588C28.8759 46.588 29.0656 46.4818 29.1721 46.3072L30.036 44.8911C30.1504 44.7037 30.1504 44.4681 30.036 44.2809Z" fill="white"/>
<path d="M26.6174 37.6978L25.0485 38.9964C25.0301 39.0116 25.014 39.0281 25 39.0455C24.9859 39.0281 24.9699 39.0116 24.9515 38.9964L23.3825 37.6978C23.1393 37.4964 22.7231 37.639 22.7231 37.9238V40.5208C22.7231 40.8056 23.1393 40.9482 23.3825 40.7468L24.9515 39.4483C24.9699 39.4331 24.986 39.4165 25 39.3991C25.014 39.4165 25.0301 39.4331 25.0485 39.4483L26.6174 40.7468C26.8607 40.9482 27.2769 40.8056 27.2769 40.5208V37.9238C27.2768 37.6391 26.8607 37.4965 26.6174 37.6978Z" fill="white"/>
<path d="M17.012 28.505C18.659 28.505 19.9942 27.1698 19.9942 25.5228C19.9942 23.8757 18.659 22.5405 17.012 22.5405C15.365 22.5405 14.0298 23.8757 14.0298 25.5228C14.0298 27.1698 15.365 28.505 17.012 28.505Z" fill="#F97A7A"/>
<path d="M32.9881 28.505C34.6351 28.505 35.9703 27.1698 35.9703 25.5228C35.9703 23.8757 34.6351 22.5405 32.9881 22.5405C31.341 22.5405 30.0059 23.8757 30.0059 25.5228C30.0059 27.1698 31.341 28.505 32.9881 28.505Z" fill="#F97A7A"/>
<path d="M20.3194 22.0085C21.2606 22.0085 22.0236 21.2455 22.0236 20.3043C22.0236 19.3631 21.2606 18.6001 20.3194 18.6001C19.3782 18.6001 18.6152 19.3631 18.6152 20.3043C18.6152 21.2455 19.3782 22.0085 20.3194 22.0085Z" fill="#493E2F"/>
<path d="M29.7042 22.0085C30.6454 22.0085 31.4084 21.2455 31.4084 20.3043C31.4084 19.3631 30.6454 18.6001 29.7042 18.6001C28.763 18.6001 28 19.3631 28 20.3043C28 21.2455 28.763 22.0085 29.7042 22.0085Z" fill="#493E2F"/>
<path d="M25.0534 27.8547C24.167 27.8547 23.2806 27.5173 22.6058 26.8425C22.3769 26.6136 22.3769 26.2426 22.6058 26.0138C22.8345 25.7851 23.2057 25.7851 23.4343 26.0138C24.3273 26.9069 25.7799 26.9067 26.6726 26.0138C26.9014 25.7851 27.2725 25.7851 27.5012 26.0138C27.73 26.2427 27.73 26.6137 27.5012 26.8425C26.8263 27.5173 25.9399 27.8547 25.0534 27.8547Z" fill="#F97A7A"/>
</svg>
