<svg width="28" height="28" viewBox="0 0 28 28" fill="none" xmlns="http://www.w3.org/2000/svg">
<mask id="mask0_2727_3124" style="mask-type:luminance" maskUnits="userSpaceOnUse" x="4" y="0" width="11" height="28">
<path d="M4.75781 0.223633H14.4922V27.7757H4.75781V0.223633Z" fill="white"/>
</mask>
<g mask="url(#mask0_2727_3124)">
<path d="M14.4915 1.04351C14.4915 0.591269 14.1239 0.223633 13.671 0.223633C13.2175 0.223633 12.8511 0.59128 12.8511 1.04351C12.8511 4.96198 11.7078 8.06265 10.459 9.04866V1.04351C10.459 0.591269 10.0924 0.223633 9.63844 0.223633C9.18556 0.223633 8.81856 0.59128 8.81856 1.04351V9.04866C7.56994 8.06281 6.42708 4.96203 6.42708 1.04351C6.42686 0.591269 6.06008 0.223633 5.60698 0.223633C5.15346 0.223633 4.78711 0.59128 4.78711 1.04351C4.78711 6.1534 6.47176 10.1227 8.81862 10.8801V26.9555C8.81862 27.4097 9.18626 27.7754 9.63849 27.7754C10.092 27.7754 10.4584 27.4095 10.4584 26.9555V10.8801C12.8059 10.1225 14.4916 6.15329 14.4916 1.04351H14.4915Z" fill="white"/>
</g>
<mask id="mask1_2727_3124" style="mask-type:luminance" maskUnits="userSpaceOnUse" x="17" y="0" width="7" height="28">
<path d="M17.3906 0.223633H23.2422V27.7757H17.3906V0.223633Z" fill="white"/>
</mask>
<g mask="url(#mask1_2727_3124)">
<path d="M23.2128 17.5918C23.2128 9.22738 21.6512 0.223633 18.2232 0.223633C17.7703 0.223633 17.4033 0.591281 17.4033 1.04351V26.955C17.4033 27.4092 17.7703 27.7749 18.2232 27.7749C18.6761 27.7749 19.0431 27.4089 19.0431 26.955V18.4117H22.4613C22.8768 18.4117 23.2123 18.0761 23.2123 17.6606C23.2123 17.6491 23.2057 17.638 23.2057 17.6258C23.2057 17.6138 23.2128 17.6034 23.2128 17.5916L23.2128 17.5918Z" fill="white"/>
</g>
</svg>
