<svg width="28" height="25" viewBox="0 0 28 25" fill="none" xmlns="http://www.w3.org/2000/svg">
<path fill-rule="evenodd" clip-rule="evenodd" d="M3.61723 15.6285C4.44715 10.7074 8.73803 6.94611 13.8922 6.94611C19.046 6.94611 23.337 10.7073 24.1672 15.6285H3.61723ZM15.6284 3.59279V1.73654C15.6284 0.778008 14.852 0 13.8918 0C12.9314 0 12.1553 0.77795 12.1553 1.73654V3.59279C5.31328 4.45248 0 10.2942 0 17.3647V19.1012H27.7834V17.3647C27.7834 10.2936 22.4699 4.45236 15.6281 3.59279H15.6284Z" fill="white"/>
<path fill-rule="evenodd" clip-rule="evenodd" d="M26.0473 20.8379H1.7368C0.776621 20.8379 0.000488281 21.6156 0.000488281 22.5742C0.000488281 23.5328 0.776621 24.3107 1.7368 24.3107H26.0473C27.0078 24.3107 27.7839 23.5328 27.7839 22.5742C27.7839 21.6156 27.0078 20.8379 26.0473 20.8379Z" fill="white"/>
</svg>
