<svg width="28" height="24" viewBox="0 0 28 24" fill="none" xmlns="http://www.w3.org/2000/svg">
<path d="M15.9764 4C16.1178 4 16.1885 4 16.2324 4.04393C16.2764 4.08787 16.2764 4.15858 16.2764 4.3V6.5C16.2764 7.32836 16.948 7.99989 17.7764 8C18.6046 7.99981 19.2764 7.32831 19.2764 6.5V4.36014C19.2764 4.21168 19.2764 4.13745 19.3238 4.093C19.3712 4.04855 19.4446 4.05332 19.5912 4.06288C21.1682 4.16567 22.1796 4.43939 22.9121 5.17188C24.0836 6.34345 24.084 8.2288 24.084 12C24.084 15.7712 24.0836 17.6565 22.9121 18.8281C21.7405 19.9997 19.8552 20 16.084 20H11.4404C7.66928 20 5.78386 19.9997 4.6123 18.8281C3.4408 17.6565 3.44043 15.7712 3.44043 12C3.44043 8.22883 3.4408 6.34345 4.6123 5.17188C5.34478 4.4394 6.35626 4.16567 7.93326 4.06288C8.07986 4.05332 8.15316 4.04855 8.20061 4.093C8.24805 4.13745 8.24805 4.21168 8.24805 4.36014V6.5C8.24805 7.32836 8.91972 7.99989 9.74805 8C10.5765 8 11.248 7.32843 11.248 6.5V4.3C11.248 4.15858 11.248 4.08787 11.292 4.04393C11.3359 4 11.4066 4 11.548 4H15.9764Z" fill="#DADADA"/>
<path d="M9.74804 2.5L9.74805 6.5" stroke="black" stroke-linecap="round"/>
<path d="M17.7764 2.5L17.7764 6.5" stroke="black" stroke-linecap="round"/>
<circle cx="9.5" cy="10.5" r="0.5" fill="#221F1F"/>
<circle cx="12.5" cy="10.5" r="0.5" fill="#221F1F"/>
<circle cx="15.5" cy="10.5" r="0.5" fill="#221F1F"/>
<circle cx="18.5" cy="10.5" r="0.5" fill="#221F1F"/>
<circle cx="9.5" cy="13.5" r="0.5" fill="#221F1F"/>
<circle cx="12.5" cy="13.5" r="0.5" fill="#221F1F"/>
<circle cx="15.5" cy="13.5" r="0.5" fill="#221F1F"/>
<circle cx="18.5" cy="13.5" r="0.5" fill="#221F1F"/>
<circle cx="9.5" cy="16.5" r="0.5" fill="#221F1F"/>
<circle cx="12.5" cy="16.5" r="0.5" fill="#221F1F"/>
<circle cx="15.5" cy="16.5" r="0.5" fill="#221F1F"/>
<circle cx="18.5" cy="16.5" r="0.5" fill="#221F1F"/>
</svg>
