<svg width="16" height="17" viewBox="0 0 16 17" fill="none" xmlns="http://www.w3.org/2000/svg">
<path d="M5.41667 10H7.08333V5.83333H5.41667V10ZM2.08333 8.75C1.44444 8.43056 0.9375 7.96875 0.5625 7.36458C0.1875 6.76042 0 6.10417 0 5.39583C0 4.35417 0.357639 3.47222 1.07292 2.75C1.78819 2.02778 2.66667 1.66667 3.70833 1.66667C3.875 1.66667 4.04514 1.68056 4.21875 1.70833C4.39236 1.73611 4.5625 1.77083 4.72917 1.8125C5.07639 1.24306 5.52778 0.798611 6.08333 0.479167C6.63889 0.159722 7.25 0 7.91667 0C8.58333 0 9.19444 0.159722 9.75 0.479167C10.3056 0.798611 10.7569 1.24306 11.1042 1.8125C11.2708 1.77083 11.4375 1.73611 11.6042 1.70833C11.7708 1.68056 11.9444 1.66667 12.125 1.66667C13.1667 1.66667 14.0451 2.02778 14.7604 2.75C15.4757 3.47222 15.8333 4.35417 15.8333 5.39583C15.8333 6.10417 15.6458 6.76042 15.2708 7.36458C14.8958 7.96875 14.3889 8.43056 13.75 8.75V13.3333H2.08333V8.75ZM8.75 10H10.4167V5.83333H8.75V10ZM3.75 11.6667H12.0833V7.72917L13 7.27083C13.3611 7.09028 13.6458 6.83681 13.8542 6.51042C14.0625 6.18403 14.1667 5.81944 14.1667 5.41667C14.1667 4.83333 13.9688 4.34028 13.5729 3.9375C13.1771 3.53472 12.6944 3.33333 12.125 3.33333C11.9722 3.33333 11.8333 3.34722 11.7083 3.375C11.5833 3.40278 11.4514 3.4375 11.3125 3.47917L10.3333 3.75L9.6875 2.66667C9.49306 2.34722 9.23958 2.10069 8.92708 1.92708C8.61458 1.75347 8.27778 1.66667 7.91667 1.66667C7.55556 1.66667 7.21875 1.75347 6.90625 1.92708C6.59375 2.10069 6.34028 2.34722 6.14583 2.66667L5.5 3.75L4.5 3.47917C4.36111 3.45139 4.22569 3.42014 4.09375 3.38542C3.96181 3.35069 3.82639 3.33333 3.6875 3.33333C3.11806 3.33333 2.63889 3.53472 2.25 3.9375C1.86111 4.34028 1.66667 4.83333 1.66667 5.41667C1.66667 5.81944 1.77083 6.18403 1.97917 6.51042C2.1875 6.83681 2.47222 7.09028 2.83333 7.27083L3.75 7.72917V11.6667ZM2.08333 13.3333H3.75V15H12.0833V13.3333H13.75V16.6667H2.08333V13.3333Z" fill="white"/>
</svg>
