<svg width="34" height="35" viewBox="0 0 34 35" fill="none" xmlns="http://www.w3.org/2000/svg">
<g clip-path="url(#clip0_273_5844)">
<path d="M8.40923 5.69238H7.00769C6.26426 5.69238 5.55128 5.99227 5.0256 6.52608C4.49992 7.05989 4.20459 7.78389 4.20459 8.53882V13.5201C4.20459 15.5961 5.01673 17.5871 6.46236 19.0551C7.90799 20.5231 9.86868 21.3478 11.9131 21.3478C13.9575 21.3478 15.9182 20.5231 17.3638 19.0551C18.8095 17.5871 19.6216 15.5961 19.6216 13.5201V8.53882C19.6216 7.78389 19.3263 7.05989 18.8006 6.52608C18.2749 5.99227 17.5619 5.69238 16.8185 5.69238H15.417" stroke="white" stroke-width="2" stroke-linecap="round" stroke-linejoin="round"/>
<path d="M11.2124 21.3478C11.2124 22.4692 11.4299 23.5796 11.8525 24.6156C12.2751 25.6517 12.8946 26.593 13.6754 27.386C14.4563 28.1789 15.3833 28.8079 16.4036 29.2371C17.4239 29.6662 18.5174 29.8871 19.6217 29.8871C20.726 29.8871 21.8195 29.6662 22.8398 29.2371C23.86 28.8079 24.7871 28.1789 25.568 27.386C26.3488 26.593 26.9683 25.6517 27.3909 24.6156C27.8135 23.5796 28.031 22.4692 28.031 21.3478V17.0781" stroke="white" stroke-width="2" stroke-linecap="round" stroke-linejoin="round"/>
<path d="M15.417 4.26953V7.11596" stroke="white" stroke-width="2" stroke-linecap="round" stroke-linejoin="round"/>
<path d="M8.40918 4.26953V7.11596" stroke="white" stroke-width="2" stroke-linecap="round" stroke-linejoin="round"/>
<path d="M28.0311 17.0786C29.5792 17.0786 30.8342 15.8042 30.8342 14.2322C30.8342 12.6601 29.5792 11.3857 28.0311 11.3857C26.483 11.3857 25.228 12.6601 25.228 14.2322C25.228 15.8042 26.483 17.0786 28.0311 17.0786Z" stroke="white" stroke-width="2" stroke-linecap="round" stroke-linejoin="round"/>
</g>
<defs>
<clipPath id="clip0_273_5844">
<rect width="33.6372" height="34.1572" fill="white"/>
</clipPath>
</defs>
</svg>
