<svg width="14" height="15" viewBox="0 0 14 15" fill="none" xmlns="http://www.w3.org/2000/svg">
<path opacity="0.999" fill-rule="evenodd" clip-rule="evenodd" d="M2.56036 0C4.80849 0 7.05666 0 9.3048 0C9.29994 0.984619 9.3048 1.96919 9.31933 2.95371C9.4714 3.40517 9.78635 3.64414 10.2641 3.67063C11.175 4.58829 12.0956 5.4964 13.0259 6.39493C13.0307 8.92807 13.0259 11.4612 13.0113 13.9943C12.9709 14.1582 12.8933 14.3015 12.7788 14.4244C12.645 14.5428 12.4949 14.6288 12.3282 14.6825C9.07223 14.6825 5.81629 14.6825 2.56036 14.6825C2.28654 14.5894 2.07819 14.4173 1.93533 14.1664C1.91595 14.109 1.89657 14.0516 1.87719 13.9943C1.86266 13.6121 1.85781 13.2297 1.86266 12.8472C4.84727 12.852 7.83189 12.8472 10.8165 12.8329C10.9527 12.7942 11.0544 12.7129 11.1217 12.5891C11.1616 12.4101 11.1761 12.2285 11.1653 12.0443C11.1702 10.4288 11.1653 8.81331 11.1508 7.19789C11.0852 7.04713 10.9738 6.94676 10.8165 6.89678C7.83189 6.88244 4.84727 6.87765 1.86266 6.88244C1.85781 4.81768 1.86266 2.75295 1.87719 0.688244C1.91767 0.524393 1.99519 0.381009 2.10976 0.258092C2.24349 0.139765 2.39367 0.0537344 2.56036 0Z" fill="#E1E4E6"/>
<path fill-rule="evenodd" clip-rule="evenodd" d="M9.30456 0C9.31424 0 9.32395 0 9.33363 0C10.5546 1.21399 11.7756 2.42797 12.9966 3.64196C12.0906 3.67058 11.1797 3.68016 10.2639 3.67063C9.78611 3.64414 9.47116 3.40517 9.31909 2.95371C9.30456 1.96919 9.2997 0.984619 9.30456 0Z" fill="#D0CECE"/>
<path fill-rule="evenodd" clip-rule="evenodd" d="M12.9949 3.64197C13.0239 4.55472 13.0336 5.47238 13.0239 6.39494C12.0937 5.49641 11.1731 4.5883 10.2622 3.67064C11.1781 3.68017 12.089 3.67059 12.9949 3.64197Z" fill="#C9D0D7"/>
<path opacity="0.999" fill-rule="evenodd" clip-rule="evenodd" d="M1.86054 6.88424C4.84515 6.87945 7.82977 6.88424 10.8144 6.89858C10.9716 6.94856 11.0831 7.04893 11.1487 7.19969C11.1632 8.81511 11.1681 10.4306 11.1632 12.0461C11.1007 12.208 10.9844 12.318 10.8144 12.3759C7.82977 12.3902 4.84515 12.395 1.86054 12.3902C1.33717 12.395 0.813895 12.3902 0.290709 12.3759C0.15989 12.3233 0.0678317 12.2325 0.0145362 12.1034C-0.00484538 10.4593 -0.00484538 8.81514 0.0145362 7.17101C0.0678317 7.04197 0.15989 6.95115 0.290709 6.89858C0.813895 6.88424 1.33717 6.87945 1.86054 6.88424Z" fill="#9B4747"/>
<path fill-rule="evenodd" clip-rule="evenodd" d="M5.51351 8.37366C6.5266 8.41226 7.02566 8.92844 7.01065 9.92221C6.89588 10.5134 6.54218 10.8814 5.94957 11.0263C4.79537 11.1017 4.24788 10.5712 4.30707 9.4347C4.48693 8.83174 4.88909 8.47807 5.51351 8.37366Z" fill="white"/>
<path fill-rule="evenodd" clip-rule="evenodd" d="M8.5793 8.40403C8.90106 8.39017 9.20145 8.46187 9.4805 8.6191C9.64178 8.70333 9.71446 8.83237 9.69853 9.00624C9.62332 9.13724 9.51187 9.18025 9.36421 9.13529C9.13075 8.90447 8.84975 8.82798 8.52116 8.90587C8.13024 9.04128 7.93646 9.31371 7.93974 9.72316C7.99178 10.428 8.3697 10.7004 9.07351 10.5404C9.19732 10.485 9.3136 10.4181 9.42236 10.3397C9.64536 10.3017 9.74711 10.3925 9.7276 10.6121C9.6326 10.7957 9.48239 10.9152 9.277 10.9706C8.03161 11.195 7.43565 10.6836 7.48914 9.43639C7.63246 8.85999 7.99585 8.51587 8.5793 8.40403Z" fill="#FCFDFE"/>
<path fill-rule="evenodd" clip-rule="evenodd" d="M1.65707 8.4902C2.07386 8.48541 2.49056 8.4902 2.90712 8.50454C3.63287 8.73427 3.9478 9.22656 3.85192 9.9814C3.74012 10.5505 3.39609 10.8899 2.81991 10.9994C2.43231 11.0186 2.04468 11.0186 1.65707 10.9994C1.60515 10.9769 1.56155 10.9435 1.52625 10.8991C1.50687 10.1343 1.50687 9.36963 1.52625 8.60491C1.56686 8.55988 1.61047 8.52163 1.65707 8.4902Z" fill="white"/>
<path fill-rule="evenodd" clip-rule="evenodd" d="M5.47616 8.8683C6.00809 8.81723 6.36177 9.0371 6.53724 9.52787C6.58157 10.3061 6.20851 10.655 5.41801 10.5746C4.92055 10.382 4.72188 10.0236 4.82206 9.4992C4.92175 9.16663 5.13978 8.95634 5.47616 8.8683Z" fill="#9B4747"/>
<path fill-rule="evenodd" clip-rule="evenodd" d="M2.00586 8.92036C2.26767 8.9156 2.52931 8.92036 2.79077 8.9347C3.17326 9.05403 3.36704 9.31212 3.37219 9.70898C3.39361 10.1357 3.19983 10.4129 2.79077 10.5406C2.52931 10.5549 2.26767 10.5597 2.00586 10.5549C2.00586 10.0101 2.00586 9.46522 2.00586 8.92036Z" fill="#9B4747"/>
<path fill-rule="evenodd" clip-rule="evenodd" d="M11.1635 12.0443C11.1743 12.2286 11.1597 12.4102 11.1199 12.5892C11.0526 12.713 10.9509 12.7942 10.8147 12.8329C7.83007 12.8473 4.84546 12.8521 1.86084 12.8473C1.86084 12.6943 1.86084 12.5414 1.86084 12.3884C4.84546 12.3932 7.83007 12.3884 10.8147 12.3741C10.9847 12.3162 11.101 12.2063 11.1635 12.0443Z" fill="#C9D1D8"/>
</svg>
