<svg width="27" height="32" viewBox="0 0 27 32" fill="none" xmlns="http://www.w3.org/2000/svg">
<path d="M24.5294 8.5V8.2C24.5294 5.67976 24.5294 4.41965 24.0486 3.45704C23.6256 2.61031 22.9507 1.9219 22.1205 1.49047C21.1768 1 19.9414 1 17.4706 1H8.05882C5.588 1 4.35259 1 3.40887 1.49047C2.57874 1.9219 1.90382 2.61031 1.48085 3.45704C1 4.41965 1 5.67976 1 8.2V23.8C1 26.3202 1 27.5804 1.48085 28.543C1.90382 29.3897 2.57874 30.0781 3.40887 30.5095C4.35259 31 5.588 31 8.05882 31H13.5M13.5 14.5H6.88235M12.0294 20.5H6.88235M18.6471 8.5H6.88235M21.5882 25V16.75C21.5882 15.5074 22.5758 14.5 23.7941 14.5C25.0124 14.5 26 15.5074 26 16.75V25C26 27.4853 24.0248 29.5 21.5882 29.5C19.1517 29.5 17.1765 27.4853 17.1765 25V19" stroke="#6E5C52" stroke-width="2" stroke-linecap="round" stroke-linejoin="round"/>
</svg>
