<svg width="28" height="28" viewBox="0 0 28 28" fill="none" xmlns="http://www.w3.org/2000/svg">
<g clip-path="url(#clip0_2638_17533)">
<path d="M25.6668 25.6665H2.3335" stroke="white" stroke-width="1.5" stroke-linecap="round"/>
<path d="M19.8337 25.6666V6.99992C19.8337 4.79959 19.8337 3.70059 19.15 3.01692C18.4663 2.33325 17.3673 2.33325 15.167 2.33325H12.8337C10.6333 2.33325 9.53433 2.33325 8.85066 3.01692C8.16699 3.70059 8.16699 4.79959 8.16699 6.99992V25.6666" stroke="white" stroke-width="1.5"/>
<path d="M14.0003 25.6666V22.1666M11.667 13.9999H16.3337M6.41699 12.8333H8.16699M6.41699 16.3333H8.16699M19.8337 12.8333H21.5837M19.8337 16.3333H21.5837M6.41699 9.33325H8.16699M19.8337 9.33325H21.5837" stroke="white" stroke-width="1.5" stroke-linecap="round"/>
<path d="M14.0003 10.4999V5.83325M16.3337 8.16659H11.667" stroke="white" stroke-width="1.5" stroke-linecap="round" stroke-linejoin="round"/>
<path d="M23.625 9.91659C23.625 10.1487 23.7172 10.3712 23.8813 10.5353C24.0454 10.6994 24.2679 10.7916 24.5 10.7916C24.7321 10.7916 24.9546 10.6994 25.1187 10.5353C25.2828 10.3712 25.375 10.1487 25.375 9.91659H23.625ZM25.375 14.5833C25.375 14.3512 25.2828 14.1286 25.1187 13.9645C24.9546 13.8004 24.7321 13.7083 24.5 13.7083C24.2679 13.7083 24.0454 13.8004 23.8813 13.9645C23.7172 14.1286 23.625 14.3512 23.625 14.5833H25.375ZM20.4167 6.70825C21.2543 6.70825 21.8167 6.70825 22.2448 6.75259C22.659 6.79459 22.8503 6.86925 22.9775 6.95442L23.9493 5.49842C23.4873 5.19042 22.9752 5.06792 22.4222 5.01192C21.8843 4.95709 21.2182 4.95825 20.4167 4.95825V6.70825ZM25.375 9.91659C25.375 9.11509 25.375 8.44892 25.3213 7.91109C25.2653 7.35925 25.1428 6.84592 24.8337 6.38392L23.3788 7.35692C23.464 7.48292 23.5387 7.67425 23.5807 8.08842C23.6238 8.51659 23.625 9.08009 23.625 9.91659H25.375ZM22.9775 6.95442C23.1377 7.06331 23.2715 7.1967 23.3788 7.35692L24.8337 6.38392C24.6003 6.03392 24.2993 5.73292 23.9493 5.49842L22.9775 6.95442ZM23.625 14.5833V25.6666H25.375V14.5833H23.625ZM4.375 19.8333C4.375 19.6012 4.28281 19.3786 4.11872 19.2145C3.95463 19.0504 3.73207 18.9583 3.5 18.9583C3.26794 18.9583 3.04538 19.0504 2.88128 19.2145C2.71719 19.3786 2.625 19.6012 2.625 19.8333H4.375ZM2.625 15.1666C2.625 15.3987 2.71719 15.6212 2.88128 15.7853C3.04538 15.9494 3.26794 16.0416 3.5 16.0416C3.73207 16.0416 3.95463 15.9494 4.11872 15.7853C4.28281 15.6212 4.375 15.3987 4.375 15.1666H2.625ZM7.58333 4.95825C6.78184 4.95825 6.11567 4.95825 5.57784 5.01192C5.026 5.06792 4.51267 5.19042 4.05067 5.49842L5.02367 6.95442C5.14967 6.86925 5.341 6.79459 5.75517 6.75259C6.18334 6.70942 6.74683 6.70825 7.58333 6.70825V4.95825ZM4.375 9.91659C4.375 9.07892 4.375 8.51659 4.41934 8.08842C4.46134 7.67425 4.536 7.48292 4.62117 7.35692L3.16517 6.38392C2.85717 6.84592 2.73467 7.35925 2.67867 7.91109C2.62384 8.44892 2.625 9.11509 2.625 9.91659H4.375ZM4.05067 5.49842C3.70105 5.73406 3.40035 6.03399 3.16517 6.38392L4.62117 7.35692C4.72873 7.19855 4.8653 7.06198 5.02367 6.95442L4.05067 5.49842ZM2.625 19.8333V25.6666H4.375V19.8333H2.625ZM2.625 9.91659V15.1666H4.375V9.91659H2.625Z" fill="white"/>
<path d="M11.667 17.5H12.2503M16.3337 17.5H14.5837" stroke="white" stroke-width="1.5" stroke-linecap="round"/>
</g>
<defs>
<clipPath id="clip0_2638_17533">
<rect width="28" height="28" fill="white"/>
</clipPath>
</defs>
</svg>
