<svg width="33" height="35" viewBox="0 0 33 35" fill="none" xmlns="http://www.w3.org/2000/svg">
<g clip-path="url(#clip0_273_5855)">
<path d="M6.05462 17.7899L16.8185 6.40412C18.0675 5.08301 19.7614 4.34082 21.5277 4.34082C23.294 4.34082 24.988 5.08301 26.2369 6.40412C27.4859 7.72524 28.1875 9.51705 28.1875 11.3854C28.1875 13.2537 27.4859 15.0455 26.2369 16.3666L15.473 27.7524C14.2241 29.0735 12.5301 29.8157 10.7638 29.8157C8.99753 29.8157 7.30358 29.0735 6.05462 27.7524C4.80566 26.4313 4.104 24.6394 4.104 22.7711C4.104 20.9028 4.80566 19.111 6.05462 17.7899" stroke="white" stroke-width="2" stroke-linecap="round" stroke-linejoin="round"/>
<path d="M11.4365 12.0977L20.8549 22.0602" stroke="white" stroke-width="2" stroke-linecap="round" stroke-linejoin="round"/>
</g>
<defs>
<clipPath id="clip0_273_5855">
<rect width="32.2917" height="34.1572" fill="white"/>
</clipPath>
</defs>
</svg>
