<svg width="25" height="25" viewBox="0 0 25 25" fill="none" xmlns="http://www.w3.org/2000/svg">
<path d="M14.8065 11.9833C14.4593 11.639 14.2857 11.2174 14.2857 10.7184C14.2857 10.2196 14.458 9.79663 14.8025 9.4494C15.1467 9.10218 15.5683 8.92857 16.0673 8.92857C16.5661 8.92857 16.9891 9.10082 17.3363 9.44531C17.6835 9.78956 17.8571 10.2112 17.8571 10.7102C17.8571 11.209 17.6849 11.6319 17.3404 11.9792C16.9962 12.3264 16.5745 12.5 16.0755 12.5C15.5768 12.5 15.1538 12.3278 14.8065 11.9833ZM7.66369 11.9833C7.31647 11.639 7.14286 11.2174 7.14286 10.7184C7.14286 10.2196 7.3151 9.79663 7.6596 9.4494C8.00384 9.10218 8.42547 8.92857 8.92448 8.92857C9.42324 8.92857 9.84623 9.10082 10.1935 9.44531C10.5407 9.78956 10.7143 10.2112 10.7143 10.7102C10.7143 11.209 10.542 11.6319 10.1975 11.9792C9.8533 12.3264 9.43167 12.5 8.93266 12.5C8.4339 12.5 8.01091 12.3278 7.66369 11.9833ZM8.51562 18.4152C7.32292 17.5967 6.4437 16.5179 5.87798 15.1786H19.122C18.5268 16.5179 17.6388 17.5967 16.458 18.4152C15.2774 19.2336 13.9567 19.6429 12.4959 19.6429C11.0353 19.6429 9.70858 19.2336 8.51562 18.4152ZM7.62165 24.0104C6.10528 23.3507 4.78584 22.4595 3.66332 21.3367C2.54055 20.2142 1.64931 18.8947 0.989584 17.3783C0.329861 15.8622 0 14.2361 0 12.5C0 10.7639 0.329861 9.13777 0.989584 7.62165C1.64931 6.10528 2.54055 4.78584 3.66332 3.66332C4.78584 2.54055 6.10528 1.6493 7.62165 0.989582C9.13777 0.32986 10.7639 0 12.5 0C14.2361 0 15.8622 0.32986 17.3783 0.989582C18.8947 1.6493 20.2142 2.54055 21.3367 3.66332C22.4595 4.78584 23.3507 6.10528 24.0104 7.62165C24.6701 9.13777 25 10.7639 25 12.5C25 14.2361 24.6701 15.8622 24.0104 17.3783C23.3507 18.8947 22.4595 20.2142 21.3367 21.3367C20.2142 22.4595 18.8947 23.3507 17.3783 24.0104C15.8622 24.6701 14.2361 25 12.5 25C10.7639 25 9.13777 24.6701 7.62165 24.0104ZM19.4568 19.4568C21.3666 17.5471 22.3214 15.2282 22.3214 12.5C22.3214 9.77183 21.3666 7.45288 19.4568 5.54315C17.5471 3.63343 15.2282 2.67857 12.5 2.67857C12.4752 2.67857 12.4752 2.67857 12.5 2.67857C12.0784 2.70337 11.7498 2.84598 11.5141 3.1064C11.2785 3.36682 11.1607 3.67063 11.1607 4.01786C11.1607 4.39286 11.2902 4.70982 11.5491 4.96875C11.808 5.22768 12.125 5.35714 12.5 5.35714C12.9216 5.35714 13.213 5.24554 13.3743 5.02232C13.5355 4.79911 13.7897 4.6875 14.1369 4.6875C14.3814 4.6875 14.5852 4.76811 14.7481 4.92932C14.9111 5.09053 14.9926 5.30754 14.9926 5.58036C14.9926 6.00198 14.7445 6.36781 14.2485 6.67783C13.7525 6.98785 13.1696 7.14286 12.5 7.14286C11.6319 7.14286 10.8941 6.83904 10.2865 6.2314C9.67882 5.62376 9.375 4.88591 9.375 4.01786C9.375 3.86905 9.3874 3.72024 9.4122 3.57143C9.437 3.42262 9.48661 3.27381 9.56101 3.125C7.47768 3.79464 5.80977 4.98512 4.55729 6.69643C3.30481 8.40774 2.67857 10.3439 2.67857 12.5048C2.67857 15.2298 3.63343 17.5471 5.54315 19.4568C7.45288 21.3666 9.77183 22.3214 12.5 22.3214C15.2282 22.3214 17.5471 21.3666 19.4568 19.4568Z" fill="#DB2777"/>
</svg>
