<svg width="24" height="23" viewBox="0 0 24 23" fill="none" xmlns="http://www.w3.org/2000/svg">
<path d="M17.7667 8.06427C17.1709 5.37616 16.5751 2.68805 15.979 0C14.9729 0 13.9668 0 12.9609 0C13.1047 2.68811 13.2487 5.37622 13.3925 8.06427H17.7667Z" fill="#16A34A"/>
<path d="M13.6218 12.3564C13.8111 15.8892 14.0001 19.4218 14.1891 22.9545C16.4816 22.9545 18.7741 22.9545 21.0665 22.9545C20.2833 19.4219 19.5005 15.8892 18.7177 12.3564H13.6218Z" fill="#16A34A"/>
<path d="M11.0393 0C10.0333 0 9.02726 0 8.02135 0C7.42545 2.68805 6.82991 5.37616 6.23413 8.06427H10.6081C10.7517 5.37616 10.8954 2.68805 11.0393 0Z" fill="#16A34A"/>
<path d="M2.93335 22.9545C5.22596 22.9545 7.51833 22.9545 9.81075 22.9545C10.0004 19.4219 10.1895 15.8892 10.3782 12.3564H5.28295C4.50001 15.8892 3.71695 19.4219 2.93335 22.9545Z" fill="#16A34A"/>
<path d="M23.7214 9.17871H0.278512C0.124693 9.17871 0 9.3034 0 9.45722V10.9629C0 11.1167 0.124693 11.2414 0.278512 11.2414H1.7859V13.4967C1.7859 13.6506 1.91053 13.7753 2.06435 13.7753H3.5686C3.696 13.7753 3.80715 13.6888 3.83845 13.5654L4.42929 11.2416H19.5707L20.1614 13.5654C20.1927 13.6889 20.3039 13.7753 20.4313 13.7753H21.9354C22.0894 13.7753 22.2139 13.6506 22.2139 13.4967V11.2414H23.7214C23.8753 11.2414 23.9999 11.1167 23.9999 10.9629V9.45722C24 9.3034 23.8753 9.17871 23.7214 9.17871Z" fill="#16A34A"/>
</svg>
