<svg width="17" height="28" viewBox="0 0 17 28" fill="none" xmlns="http://www.w3.org/2000/svg">
<path d="M8.37492 13.0413H8.38825M8.37492 25.708C4.69302 25.708 1.70825 22.7232 1.70825 19.0413V5.97467C1.70825 4.48121 1.70825 3.73446 1.99891 3.16403C2.25456 2.66226 2.66251 2.25431 3.16428 1.99866C3.73471 1.70801 4.48145 1.70801 5.97492 1.70801H10.7749C12.2684 1.70801 13.0152 1.70801 13.5856 1.99866C14.0873 2.25431 14.4953 2.66226 14.7509 3.16403C15.0416 3.73446 15.0416 4.48121 15.0416 5.97467V19.0413C15.0416 22.7232 12.0568 25.708 8.37492 25.708ZM9.04158 6.37467C9.04158 6.74286 8.74305 7.04134 8.37492 7.04134C8.00678 7.04134 7.70825 6.74286 7.70825 6.37467C7.70825 6.00649 8.00678 5.70801 8.37492 5.70801C8.74305 5.70801 9.04158 6.00649 9.04158 6.37467ZM9.04158 13.0413C9.04158 13.4095 8.74305 13.708 8.37492 13.708C8.00678 13.708 7.70825 13.4095 7.70825 13.0413C7.70825 12.6732 8.00678 12.3747 8.37492 12.3747C8.74305 12.3747 9.04158 12.6732 9.04158 13.0413ZM9.04158 19.708C9.04158 20.0761 8.74305 20.3747 8.37492 20.3747C8.00678 20.3747 7.70825 20.0761 7.70825 19.708C7.70825 19.3399 8.00678 19.0413 8.37492 19.0413C8.74305 19.0413 9.04158 19.3399 9.04158 19.708Z" stroke="#475569" stroke-width="3.41667" stroke-linecap="round" stroke-linejoin="round"/>
</svg>
